<svg xmlns="http://www.w3.org/2000/svg" viewBox="0 0 125 83"><defs><style>.cls-1{isolation:isolate;}.cls-2{mix-blend-mode:multiply;}.cls-3{fill:#fff;}.cls-4{fill:#82afde;}.cls-5{fill:#fbc13e;}.cls-6{fill:#893514;}</style></defs><title>banderas</title><g class="cls-1"><g id="Layer_1" data-name="Layer 1"><g class="cls-2"><rect class="cls-3" width="125" height="83"/><rect class="cls-4" width="125" height="27.67"/><rect class="cls-4" y="55.33" width="125" height="27.67"/><ellipse class="cls-5" cx="62.5" cy="41.5" rx="4.58" ry="4.57"/><path class="cls-6" d="M62.5,46.1a4.6,4.6,0,1,1,4.62-4.6A4.62,4.62,0,0,1,62.5,46.1Zm0-9.13A4.53,4.53,0,1,0,67,41.5,4.55,4.55,0,0,0,62.5,37Z"/><path class="cls-5" d="M62.5,41.5l-.32-4.55s0-2.43.21-6.73c0-.06,0-.21.15-.21s.13.13.15.18c.18,3.67.18,6.76.18,6.76Z"/><path class="cls-6" d="M62.54,41.5h-.07L62.14,37s0-2.48.21-6.73h0v0c0-.07,0-.19.17-.2h0a.17.17,0,0,1,.17.17v0h0c.17,3.63.18,6.73.18,6.76Zm-.11-11.28c-.2,4.25-.21,6.7-.21,6.72L62.5,41l.34-4.09s0-3.12-.18-6.75v0c0-.05,0-.1-.11-.11s-.09.06-.11.14Z"/><path class="cls-5" d="M62.5,41.5l-2-4.08s-.93-2.25-2.39-6.3c0-.07-.06-.2.06-.26s.17.07.21.11c1.57,3.32,2.77,6.17,2.77,6.17Z"/><path class="cls-6" d="M62.47,41.51l-2-4.08s-.94-2.3-2.39-6.3h0v0c0-.07,0-.19.08-.25h.08a.18.18,0,0,1,.15.1l0,0h0c1.55,3.29,2.75,6.15,2.77,6.18l1.4,4.35ZM58.1,31.11c1.44,4,2.38,6.27,2.39,6.29l1.84,3.67-1.25-3.91S59.86,34.28,58.31,31l0,0s0-.07-.09-.07h0c-.06,0-.06.09,0,.17Z"/><path class="cls-5" d="M62.5,41.5l-3.46-3s-1.72-1.72-4.62-4.91c0-.06-.13-.16,0-.26s.18,0,.24,0C57.34,35.83,59.54,38,59.54,38Z"/><path class="cls-6" d="M62.48,41.53l-3.46-3s-1.75-1.76-4.63-4.91h0l0,0c0-.06-.1-.16,0-.26h0a.19.19,0,0,1,.12-.05.21.21,0,0,1,.12,0l0,0h0c2.7,2.44,4.91,4.63,4.93,4.65l3,3.49Zm-8-7.95c2.87,3.15,4.6,4.89,4.62,4.9l3.11,2.69L59.51,38s-2.23-2.2-4.92-4.64l0,0a.15.15,0,0,0-.08,0l-.08,0c0,.05,0,.11,0,.18Z"/><path class="cls-5" d="M62.5,41.5l-4.34-1.45s-2.25-.93-6.16-2.77c0,0-.18-.1-.14-.22S52,37,52.09,37c3.47,1.24,6.34,2.42,6.34,2.42Z"/><path class="cls-6" d="M62.49,41.53l-4.34-1.45s-2.3-1-6.16-2.77h0l0,0c-.06,0-.16-.11-.12-.24h0a.17.17,0,0,1,.15-.1h.12c3.43,1.23,6.31,2.41,6.34,2.42l4.08,2.09ZM52,37.25C55.88,39.06,58.15,40,58.17,40l3.9,1.3-3.66-1.88s-2.9-1.19-6.33-2.41H52s-.06,0-.09.06,0,.11.09.15Z"/><path class="cls-5" d="M62.5,41.5l-4.57.32s-2.44,0-6.75-.22c-.06,0-.21,0-.21-.15s.13-.13.18-.15c3.68-.18,6.79-.18,6.79-.18Z"/><path class="cls-6" d="M57.93,41.85h0s-2.49,0-6.76-.21h0c-.07,0-.19,0-.2-.17h0a.17.17,0,0,1,.17-.17h0c3.64-.17,6.76-.18,6.79-.18l4.57.38v.07Zm-6.75-.28c4.23.2,6.68.21,6.75.21L62,41.5l-4.11-.34s-3.14,0-6.78.18h0c-.05,0-.1,0-.11.11s.06.09.14.11Z"/><path class="cls-5" d="M62.5,41.5l-4.1,2s-2.25.92-6.32,2.38c-.07,0-.2.06-.26-.06s.07-.17.11-.21c3.34-1.57,6.2-2.76,6.2-2.76Z"/><path class="cls-6" d="M52,46a.16.16,0,0,1-.16-.09h0a.18.18,0,0,1,.09-.23l0,0h0c3.3-1.55,6.17-2.74,6.2-2.76l4.37-1.39,0,.07-4.1,2s-2.31.94-6.33,2.38H52Zm-.09-.12a.09.09,0,0,0,.09.05h.12c4-1.44,6.29-2.37,6.32-2.38l3.68-1.83-3.93,1.25s-2.9,1.21-6.19,2.75l0,0S51.83,45.75,51.86,45.84Z"/><path class="cls-5" d="M62.5,41.5l-3,3.44s-1.73,1.71-4.93,4.61c-.06,0-.16.13-.26,0s0-.18,0-.24C56.81,46.64,59,44.45,59,44.45Z"/><path class="cls-6" d="M54.39,49.66a.16.16,0,0,1-.11,0h0a.18.18,0,0,1,0-.24l0,0h0C56.76,46.65,59,44.45,59,44.42l3.5-3,0,0-3,3.45s-1.77,1.75-4.93,4.61h0l0,0A.31.31,0,0,1,54.39,49.66Zm-.06-.09.06,0a.24.24,0,0,0,.12,0l0,0c3.16-2.86,4.91-4.59,4.92-4.6l2.7-3.09L59,44.48s-2.21,2.22-4.66,4.9l0,0A.11.11,0,0,0,54.33,49.57Z"/><path class="cls-5" d="M62.5,41.5,61,45.83s-.94,2.24-2.78,6.13c0,0-.1.18-.22.14s-.07-.17-.07-.23c1.25-3.46,2.43-6.31,2.43-6.31Z"/><path class="cls-6" d="M58.09,52.14H58a.18.18,0,0,1-.1-.22v0h0c1.23-3.42,2.42-6.29,2.43-6.32l2.1-4.06.07,0-1.45,4.33s-1,2.29-2.78,6.14h0l0,0A.24.24,0,0,1,58.09,52.14Zm0-.08h0c.05,0,.09-.05.12-.09l0,0C60.06,48.1,61,45.83,61,45.81l1.31-3.89-1.89,3.65S59.24,48.47,58,51.88v0C58,52,58,52,58.06,52.07Z"/><path class="cls-5" d="M62.5,41.5l.32,4.55s0,2.43-.21,6.73c0,.06,0,.21-.15.21s-.13-.13-.15-.18c-.18-3.67-.18-6.76-.18-6.76Z"/><path class="cls-6" d="M62.45,53h0a.17.17,0,0,1-.17-.17v0h0c-.17-3.63-.18-6.73-.18-6.76l.38-4.55h.07L62.86,46s0,2.48-.21,6.73h0v0c0,.07,0,.19-.17.2Zm-.12-.23v0c0,.05,0,.1.11.11s.09-.06.11-.14v0c.2-4.25.21-6.7.21-6.72L62.5,42l-.34,4.09S62.16,49.18,62.34,52.8Z"/><path class="cls-5" d="M62.5,41.5l2,4.08s.93,2.25,2.39,6.3c0,.07.06.2-.06.26s-.17-.07-.21-.11c-1.57-3.32-2.77-6.17-2.77-6.17Z"/><path class="cls-6" d="M66.81,52.18a.18.18,0,0,1-.15-.1l0,0h0c-1.55-3.29-2.76-6.15-2.77-6.18l-1.4-4.35.07,0,2,4.08s.94,2.29,2.39,6.3h0v0a.2.2,0,0,1-.09.25h-.08ZM66.69,52l0,0s0,.07.09.07h0c.06,0,.06-.09,0-.17v0c-1.44-4-2.38-6.27-2.38-6.29l-1.84-3.67,1.26,3.91S65.14,48.72,66.69,52Z"/><path class="cls-5" d="M62.5,41.5l3.46,3s1.72,1.72,4.63,4.91c0,.06.13.16,0,.26s-.18,0-.24,0C67.66,47.17,65.46,45,65.46,45Z"/><path class="cls-6" d="M70.53,49.74a.2.2,0,0,1-.12,0l0,0h0C67.67,47.22,65.46,45,65.44,45l-3-3.49,0,0,3.46,3s1.75,1.76,4.63,4.91h0l0,0a.2.2,0,0,1,0,.26h0A.19.19,0,0,1,70.53,49.74Zm-.12-.13,0,0a.14.14,0,0,0,.08,0l.08,0c0-.05,0-.11,0-.18l0,0c-2.87-3.15-4.6-4.89-4.62-4.9l-3.11-2.69L65.49,45S67.71,47.17,70.41,49.61Z"/><path class="cls-5" d="M62.5,41.5l4.34,1.45s2.25.94,6.16,2.77c0,0,.18.1.14.22S73,46,72.91,46c-3.47-1.24-6.34-2.42-6.34-2.42Z"/><path class="cls-6" d="M73,46.06H72.9c-3.43-1.23-6.31-2.41-6.34-2.42l-4.08-2.09,0-.07,4.34,1.45s2.3,1,6.16,2.77h0l0,0c.06,0,.16.11.12.24h0A.17.17,0,0,1,73,46.06Zm-.1-.09H73s.06,0,.09-.06,0-.11-.09-.15l0,0C69.12,43.93,66.85,43,66.83,43l-3.91-1.3,3.67,1.88S69.49,44.75,72.92,46Z"/><path class="cls-5" d="M62.5,41.5l4.57-.32s2.44,0,6.75.21c.06,0,.21,0,.21.15s-.13.13-.18.15c-3.68.17-6.79.18-6.79.18Z"/><path class="cls-6" d="M67.07,41.92h0l-4.57-.38v-.07l4.57-.32h0s2.49,0,6.76.21h0c.07,0,.19,0,.2.17h0a.17.17,0,0,1-.17.17h0c-3.64.17-6.76.18-6.79.18ZM63,41.5l4.11.34c.08,0,3.17,0,6.78-.18h0c.05,0,.1,0,.11-.11s-.06-.09-.14-.11h0c-4.26-.2-6.72-.21-6.75-.21Z"/><path class="cls-5" d="M62.5,41.5l4.1-2s2.25-.92,6.32-2.38c.06,0,.2-.06.26.06s-.07.17-.11.21c-3.34,1.57-6.2,2.75-6.2,2.75Z"/><path class="cls-6" d="M62.51,41.53l0-.07,4.1-2s2.3-.94,6.33-2.38H73a.16.16,0,0,1,.16.09h0a.18.18,0,0,1-.09.23l0,0h0c-3.3,1.55-6.17,2.74-6.2,2.75Zm10.42-4.41c-4,1.44-6.29,2.37-6.32,2.38l-3.68,1.83,3.93-1.25s2.9-1.2,6.19-2.75l0,0s.09-.06.06-.14a.09.09,0,0,0-.1-.05h-.12Z"/><path class="cls-5" d="M62.5,41.5l3-3.45s1.73-1.71,4.93-4.61c.06,0,.16-.13.26,0s0,.18,0,.24C68.19,36.36,66,38.55,66,38.55Z"/><path class="cls-6" d="M62.52,41.53l0-.05,3-3.44s1.77-1.75,4.93-4.61h0l0,0a.3.3,0,0,1,.16-.06.16.16,0,0,1,.11,0h0a.17.17,0,0,1,0,.24l0,0h0C68.24,36.35,66,38.55,66,38.58Zm7.93-8c-3.16,2.86-4.91,4.58-4.92,4.6l-2.7,3.09L66,38.52s2.21-2.22,4.66-4.9l0,0a.11.11,0,0,0,0-.16l-.06,0a.24.24,0,0,0-.12,0Z"/><path class="cls-5" d="M62.5,41.5,64,37.17s.94-2.24,2.78-6.13c0,0,.1-.18.22-.14s.07.17.07.23c-1.25,3.45-2.43,6.31-2.43,6.31Z"/><path class="cls-6" d="M62.53,41.52l-.07,0,1.45-4.33s1-2.29,2.78-6.14h0l0,0a.23.23,0,0,1,.18-.13H67a.17.17,0,0,1,.1.22v0h0c-1.23,3.42-2.42,6.29-2.43,6.32Zm4.23-10.46C64.94,34.9,64,37.16,64,37.19l-1.3,3.89,1.89-3.65s1.19-2.89,2.42-6.3v0c0-.05,0-.1-.06-.14h0c-.05,0-.09.05-.12.1Z"/><path class="cls-5" d="M62.49,41.47l1.12-.27,1.12-.27,1.11-.29,1.09-.32s.13,0,.4-.12l.51-.19a7.54,7.54,0,0,1,.76-.25,4.21,4.21,0,0,1,1-.12l.58,0,.3,0,.15,0h.11a1.48,1.48,0,0,0,.55-.12c.19-.08.4-.21.65-.3a1.93,1.93,0,0,1,.82-.11,2.68,2.68,0,0,1,.81.21l.05,0,.06,0a.15.15,0,0,1,0,.06.13.13,0,0,1,0,.08.19.19,0,0,1-.06.07l-.06,0h-.11a2.61,2.61,0,0,0-.63-.13,1.58,1.58,0,0,0-.58.07,2.41,2.41,0,0,0-.53.26l-.29.16a1.76,1.76,0,0,1-.33.13,2.19,2.19,0,0,1-.34.07h-.88a4.41,4.41,0,0,0-.94.1,4.75,4.75,0,0,0-.74.25l-.6.24a4.77,4.77,0,0,1-.56.18L66,41.16l-1.15.12-1.15.09Z"/><path class="cls-6" d="M62.5,41.5v-.07l1.12-.27h0l1.12-.27,1.11-.29,1.09-.33h0l.38-.11.51-.19,0,0a6.88,6.88,0,0,1,.72-.24,4.24,4.24,0,0,1,1-.12h0l.56,0,.3,0,.18,0h.09a1.46,1.46,0,0,0,.53-.12l.22-.11a4.1,4.1,0,0,1,.42-.19,2,2,0,0,1,.83-.11,2.63,2.63,0,0,1,.82.21h0l0,0h0l.06,0a.2.2,0,0,1,0,.07.17.17,0,0,1,0,.1h0a.22.22,0,0,1-.07.08l-.08,0h-.12a2.53,2.53,0,0,0-.62-.12,1.58,1.58,0,0,0-.57.07,2.39,2.39,0,0,0-.52.26l-.3.17a2,2,0,0,1-.34.13,2.07,2.07,0,0,1-.35.07h-.89a4,4,0,0,0-1.67.34l-.22.09-.38.15c-.13,0-.33.12-.54.17h0L66,41.2l-1.16.12-1.11.09h0Zm4.45-1.15h0l-1.09.33L64.74,41l-1.12.27h0l-.67.16.69-.05h0l1.11-.09,1.15-.12L67.1,41h0a4.89,4.89,0,0,0,.54-.18l.38-.15.22-.09A4.64,4.64,0,0,1,69,40.3a4.56,4.56,0,0,1,.95-.1h.88l.33-.06a2,2,0,0,0,.33-.13l.29-.16a2.43,2.43,0,0,1,.54-.27,1.61,1.61,0,0,1,.6-.07,2.54,2.54,0,0,1,.63.13h.14l0-.05a.09.09,0,0,0,0-.06l0,0-.05,0h0l0,0a2.61,2.61,0,0,0-.8-.21,1.89,1.89,0,0,0-.8.11,3.77,3.77,0,0,0-.42.19l-.23.11a1.54,1.54,0,0,1-.56.13h-.11l-.17,0-.3,0-.56,0h0a4.16,4.16,0,0,0-1,.12,6.58,6.58,0,0,0-.71.23l0,0-.51.19-.39.12Z"/><path class="cls-5" d="M62.49,41.47l.93-.67.93-.67.92-.69q.45-.35.88-.72a3.9,3.9,0,0,0,.32-.26l.4-.37a7.08,7.08,0,0,1,.61-.52,4.22,4.22,0,0,1,.91-.51l.55-.2.29-.09.15,0h0l.06,0a1.5,1.5,0,0,0,.46-.33c.14-.14.29-.34.48-.53a1.91,1.91,0,0,1,.71-.41,2.66,2.66,0,0,1,.83-.11H72l.07,0,.06,0a.12.12,0,0,1,0,.08.18.18,0,0,1,0,.08l0,0-.05,0h0a2.54,2.54,0,0,0-.63.12,1.57,1.57,0,0,0-.51.29,2.4,2.4,0,0,0-.39.45c-.06.08-.13.18-.21.26A1.93,1.93,0,0,1,70,37a2,2,0,0,1-.29.19l-.07,0,0,0-.05,0-.14,0-.51.2a4.41,4.41,0,0,0-.83.45,4.67,4.67,0,0,0-.59.51L67,38.9a4.66,4.66,0,0,1-.44.38c-.33.2-.67.4-1,.59l-1,.55-1,.53Z"/><path class="cls-6" d="M62.51,41.5l0-.06.93-.67.93-.67.91-.69c.32-.25.61-.49.88-.71h0a3.76,3.76,0,0,0,.31-.25l.4-.37,0,0a6.91,6.91,0,0,1,.57-.49,4.39,4.39,0,0,1,.91-.51l.55-.2.29-.09.17,0h0l.06,0a1.46,1.46,0,0,0,.45-.32l.17-.19a3.44,3.44,0,0,1,.32-.34,1.9,1.9,0,0,1,.73-.42,2.62,2.62,0,0,1,.82-.12H72l.08,0,.07.05a.17.17,0,0,1,0,.1h0a.19.19,0,0,1,0,.1.16.16,0,0,1-.06.05l-.06,0H72a2.57,2.57,0,0,0-.62.12,1.53,1.53,0,0,0-.5.28,2.32,2.32,0,0,0-.38.44c-.06.08-.13.17-.21.27A2,2,0,0,1,70,37a2.3,2.3,0,0,1-.29.19l-.08,0,0,0,0,0h0l-.14.05-.51.2a4.44,4.44,0,0,0-.83.44,4.77,4.77,0,0,0-.59.51l-.17.17-.29.29a5,5,0,0,1-.43.37h0c-.31.19-.64.39-1,.59l-1,.55-1,.53Zm3.67-2.76h0c-.27.23-.56.47-.88.72l-.92.69-.93.67-.56.4.61-.31,1-.53,1-.55c.37-.2.69-.4,1-.59h0a4.62,4.62,0,0,0,.43-.37l.29-.28.17-.17a4.56,4.56,0,0,1,.6-.51,4.34,4.34,0,0,1,.84-.45l.51-.2.14,0h.05l0,0,.07,0a2.09,2.09,0,0,0,.29-.19,2,2,0,0,0,.25-.24c.08-.09.15-.18.21-.26a2.45,2.45,0,0,1,.39-.45,1.58,1.58,0,0,1,.52-.29,2.51,2.51,0,0,1,.63-.12h.1l0,0a.14.14,0,0,0,0-.07.09.09,0,0,0,0-.05l0,0-.06,0h-.08a2.56,2.56,0,0,0-.8.11,1.84,1.84,0,0,0-.7.4,3.7,3.7,0,0,0-.31.33l-.17.19a1.52,1.52,0,0,1-.47.33l-.07,0h0l-.16,0-.29.09-.54.2a4.24,4.24,0,0,0-.9.5,6.78,6.78,0,0,0-.57.49l0,0-.4.37a4,4,0,0,1-.31.25Z"/><path class="cls-5" d="M62.49,41.47l.6-1,.6-1c.2-.33.39-.65.58-1s.37-.66.54-1a4.05,4.05,0,0,0,.2-.36l.23-.49A7.13,7.13,0,0,1,65.6,36a4.23,4.23,0,0,1,.64-.82c.13-.13.28-.26.43-.39l.23-.19.12-.1h0l0-.05a1.45,1.45,0,0,0,.3-.47c.07-.19.13-.43.24-.67a1.89,1.89,0,0,1,.5-.65,2.66,2.66,0,0,1,.72-.42h.21a.12.12,0,0,1,.05.06.17.17,0,0,1,0,.09.1.1,0,0,1,0,.06l0,0,0,0a2.54,2.54,0,0,0-.53.35,1.57,1.57,0,0,0-.36.46,2.43,2.43,0,0,0-.19.56c0,.1-.05.21-.09.32a1.89,1.89,0,0,1-.14.33,2.16,2.16,0,0,1-.2.29l-.05.06,0,0,0,0-.11.1-.4.38a4.38,4.38,0,0,0-.6.73,4.62,4.62,0,0,0-.35.7l-.25.59a4.61,4.61,0,0,1-.27.52c-.23.32-.46.62-.7.93l-.73.9-.75.88Z"/><path class="cls-6" d="M62.52,41.49l-.06,0,.6-1,.6-1c.22-.36.41-.68.58-1s.38-.68.54-1h0a3.71,3.71,0,0,0,.19-.35l.23-.49,0,0a6.54,6.54,0,0,1,.34-.67,4.22,4.22,0,0,1,.65-.82c.13-.13.27-.26.43-.39l.23-.19.14-.11h0l0,0a1.44,1.44,0,0,0,.29-.46c0-.07.05-.15.08-.24a4.1,4.1,0,0,1,.16-.43,1.92,1.92,0,0,1,.51-.66,2.64,2.64,0,0,1,.73-.43H69l.09,0a.16.16,0,0,1,.07.08h0a.2.2,0,0,1,0,.11.14.14,0,0,1,0,.07l-.05,0h0l0,0h0a2.56,2.56,0,0,0-.53.35,1.52,1.52,0,0,0-.36.45,2.39,2.39,0,0,0-.18.55c0,.09-.05.21-.09.33a2,2,0,0,1-.15.33,2.19,2.19,0,0,1-.2.29l-.05.07,0,0,0,0h0l-.11.1-.39.38a4.39,4.39,0,0,0-.59.72,4.51,4.51,0,0,0-.35.69l-.09.22-.16.38a5.19,5.19,0,0,1-.26.51h0v0c-.21.3-.44.6-.7.93l-.73.9-.73.86,0,0Zm2.33-3.95h0c-.16.32-.34.64-.54,1s-.36.62-.58,1l-.6,1-.36.58.43-.5,0,0,.73-.86c.28-.34.52-.62.73-.89s.49-.63.7-.93h0a5,5,0,0,0,.26-.51l.16-.37.09-.22a4.74,4.74,0,0,1,.35-.7,4.51,4.51,0,0,1,.6-.74l.4-.38.11-.1h0l0,0,0,0,.05-.06a2.15,2.15,0,0,0,.19-.28,1.94,1.94,0,0,0,.14-.32,3.17,3.17,0,0,0,.09-.32,2.48,2.48,0,0,1,.19-.57,1.57,1.57,0,0,1,.37-.47A2.63,2.63,0,0,1,69,32.4l0,0h0l0,0,0,0a.14.14,0,0,0,0-.07.08.08,0,0,0,0,0h-.18a2.61,2.61,0,0,0-.71.41,1.85,1.85,0,0,0-.49.64,3.57,3.57,0,0,0-.16.43c0,.09-.05.17-.08.24a1.51,1.51,0,0,1-.3.48l0,.05h0l-.13.1-.23.19c-.16.13-.3.26-.43.39a4.22,4.22,0,0,0-.64.81,6.62,6.62,0,0,0-.34.67l0,0-.23.49c-.1.21-.17.32-.19.36Z"/><path class="cls-5" d="M62.49,41.47c.06-.38.12-.76.18-1.13s.12-.76.18-1.13.11-.75.16-1.13.09-.75.12-1.13a4.08,4.08,0,0,0,0-.41c0-.14,0-.32,0-.54a7.14,7.14,0,0,1,.06-.79,4.15,4.15,0,0,1,.28-1c.07-.17.15-.35.25-.53l.14-.27.07-.13h0v0l0-.07a1.46,1.46,0,0,0,.09-.55c0-.2,0-.45,0-.71a1.88,1.88,0,0,1,.21-.79,2.63,2.63,0,0,1,.51-.67l.05,0,.07,0H65a.13.13,0,0,1,.07,0,.19.19,0,0,1,0,.08.12.12,0,0,1,0,.06l0,.05,0,0a2.5,2.5,0,0,0-.36.53,1.57,1.57,0,0,0-.16.56,2.45,2.45,0,0,0,0,.59c0,.1,0,.22,0,.33a2,2,0,0,1,0,.36,2.37,2.37,0,0,1-.07.34l0,.08,0,0,0,.05-.06.13c-.08.17-.16.34-.22.5a4.51,4.51,0,0,0-.27.9,4.92,4.92,0,0,0-.06.78c0,.24,0,.46,0,.64a4.47,4.47,0,0,1,0,.58c-.09.38-.19.75-.29,1.13s-.22.74-.33,1.11-.23.73-.35,1.1Z"/><path class="cls-6" d="M62.53,41.48l-.07,0c.06-.38.12-.77.18-1.13s.12-.75.18-1.13.12-.79.16-1.13.09-.77.12-1.13h0v0a4,4,0,0,0,0-.4c0-.14,0-.33,0-.54v0a6.59,6.59,0,0,1,.06-.75,4.34,4.34,0,0,1,.28-1c.07-.17.15-.34.25-.53l.14-.27.09-.15v0l0-.06a1.43,1.43,0,0,0,.09-.54c0-.08,0-.16,0-.25a3.89,3.89,0,0,1,0-.46,1.91,1.91,0,0,1,.21-.81,2.66,2.66,0,0,1,.51-.68h0l0,0h0l.07,0,.09,0a.16.16,0,0,1,.09,0h0a.22.22,0,0,1,0,.09.15.15,0,0,1,0,.08l0,.06h0l0,0h0a2.48,2.48,0,0,0-.35.52,1.52,1.52,0,0,0-.16.55,2.4,2.4,0,0,0,0,.58c0,.09,0,.21,0,.34a1.85,1.85,0,0,1,0,.36,2.18,2.18,0,0,1-.07.34l0,.08,0,.05,0,0h0l-.06.13c-.09.2-.16.36-.22.5a4.39,4.39,0,0,0-.27.89,4.62,4.62,0,0,0-.06.77c0,.08,0,.16,0,.23s0,.29,0,.41a4.73,4.73,0,0,1,0,.57h0v0c-.08.35-.18.72-.29,1.13s-.2.69-.33,1.11l-.34,1.06,0,.05Zm.64-4.54h0c0,.35-.07.72-.12,1.13s-.09.71-.16,1.13-.12.76-.18,1.13L62.6,41l.21-.64,0-.05.34-1.06c.13-.42.24-.77.33-1.1s.21-.77.29-1.12h0a4.47,4.47,0,0,0,0-.57c0-.12,0-.26,0-.41s0-.15,0-.23A4.66,4.66,0,0,1,63.9,35a4.49,4.49,0,0,1,.27-.91c.06-.14.13-.3.22-.5l.06-.13h0l0,0,0,0,0-.08a2,2,0,0,0,.07-.33,1.88,1.88,0,0,0,0-.35c0-.12,0-.24,0-.33a2.41,2.41,0,0,1,0-.59,1.6,1.6,0,0,1,.16-.58,2.61,2.61,0,0,1,.36-.53l0,0h0l0,0a.08.08,0,0,0,0,0,.15.15,0,0,0,0-.06l-.05,0h-.05l-.06,0h0l0,0a2.54,2.54,0,0,0-.5.66,1.81,1.81,0,0,0-.21.78,3.59,3.59,0,0,0,0,.46c0,.09,0,.17,0,.25a1.5,1.5,0,0,1-.1.56l0,.07v0h0l-.08.15-.14.27c-.1.19-.18.36-.24.52a4.23,4.23,0,0,0-.28,1,6.68,6.68,0,0,0-.06.75v0c0,.21,0,.4,0,.54s0,.36,0,.4Z"/><path class="cls-5" d="M62.49,41.47c-.09-.37-.18-.75-.27-1.12L62,39.24c-.09-.37-.19-.74-.29-1.11s-.21-.73-.33-1.09c0,0,0-.13-.12-.4L61,36.14a7.44,7.44,0,0,1-.25-.76,4.23,4.23,0,0,1-.12-1c0-.19,0-.38,0-.58s0-.2,0-.3l0-.15v0h0v0s0,0,0-.07a1.48,1.48,0,0,0-.12-.55c-.08-.18-.21-.4-.3-.64a1.87,1.87,0,0,1-.11-.81,2.62,2.62,0,0,1,.21-.81l0-.05,0-.06.06,0h.08a.17.17,0,0,1,.07.06.1.1,0,0,1,0,.06.27.27,0,0,1,0,.06.23.23,0,0,0,0,0,2.61,2.61,0,0,0-.13.63,1.56,1.56,0,0,0,.07.58,2.37,2.37,0,0,0,.27.53c.05.09.11.19.16.29a1.93,1.93,0,0,1,.13.33,2,2,0,0,1,.06.34s0,.06,0,.08v.05s0,0,0,.06v.14c0,.19,0,.37,0,.55a4.43,4.43,0,0,0,.1.94,4.64,4.64,0,0,0,.25.74l.24.59a4.31,4.31,0,0,1,.18.56c.06.38.12.77.16,1.15s.08.77.12,1.15.07.76.1,1.15S62.46,41.09,62.49,41.47Z"/><path class="cls-6" d="M62.46,41.48l-.27-1.12h0c-.09-.37-.18-.74-.27-1.11s-.2-.78-.29-1.1-.21-.75-.33-1.09h0v0s0-.17-.12-.38-.11-.3-.19-.5l0,0a6.7,6.7,0,0,1-.24-.72,4.26,4.26,0,0,1-.12-1c0-.18,0-.37,0-.58s0-.19,0-.3l0-.18v0s0,0,0-.07a1.45,1.45,0,0,0-.12-.53l-.11-.22a3.88,3.88,0,0,1-.19-.42,1.89,1.89,0,0,1-.11-.83,2.65,2.65,0,0,1,.21-.82h0l0,0v0l.05-.06.08,0a.15.15,0,0,1,.1,0h0a.24.24,0,0,1,.08.07.15.15,0,0,1,0,.08.36.36,0,0,1,0,.07h0v0h0a2.48,2.48,0,0,0-.13.62,1.52,1.52,0,0,0,.07.57,2.39,2.39,0,0,0,.26.52c.05.08.11.19.17.3a2,2,0,0,1,.13.34,2.16,2.16,0,0,1,.06.34v.14s0,0,0,0h0v.15c0,.22,0,.39,0,.54a4.4,4.4,0,0,0,.1.93,4.64,4.64,0,0,0,.25.74l.09.21.16.38a5,5,0,0,1,.18.53h0v0c.06.36.11.74.16,1.15s.08.71.12,1.15.06.75.09,1.11v0c0,.37.06.76.1,1.14ZM61.38,37h0c.11.34.22.69.33,1.09s.18.69.29,1.11.18.75.27,1.11h0l.16.67-.06-.69v0c0-.37-.06-.74-.09-1.11s-.08-.8-.12-1.15-.1-.79-.16-1.15h0a4.8,4.8,0,0,0-.18-.54L61.66,36l-.09-.21a4.58,4.58,0,0,1-.25-.75,4.34,4.34,0,0,1-.1-.94c0-.15,0-.33,0-.55v-.16s0,0,0,0v-.13a2,2,0,0,0-.06-.33,2,2,0,0,0-.13-.33c-.05-.11-.12-.21-.16-.29a2.45,2.45,0,0,1-.27-.53,1.59,1.59,0,0,1-.07-.59,2.59,2.59,0,0,1,.13-.63v0h0a.16.16,0,0,0,0,0,.08.08,0,0,0,0,0l-.05,0h-.06l0,0,0,.05v0l0,0a2.54,2.54,0,0,0-.21.79,1.84,1.84,0,0,0,.11.8,3.68,3.68,0,0,0,.19.41l.11.23a1.5,1.5,0,0,1,.13.56s0,0,0,.07v0h0l0,.17c0,.11,0,.21,0,.3s0,.4,0,.58a4.16,4.16,0,0,0,.12,1,6.42,6.42,0,0,0,.23.71l0,0c.08.21.14.37.19.51s.11.35.12.39Z"/><path class="cls-5" d="M62.49,41.47l-.68-.93-.68-.93c-.23-.31-.46-.61-.69-.91s-.47-.59-.72-.88a3.92,3.92,0,0,0-.26-.32l-.37-.4a7.53,7.53,0,0,1-.52-.6,4.21,4.21,0,0,1-.51-.9c-.07-.17-.14-.35-.2-.54l-.09-.29,0-.15v0h0v0l0-.06a1.47,1.47,0,0,0-.33-.46c-.14-.14-.35-.29-.53-.48a1.91,1.91,0,0,1-.41-.71,2.67,2.67,0,0,1-.12-.83.39.39,0,0,0,0-.06.41.41,0,0,1,0-.07.18.18,0,0,1,0-.06l.08,0,.09,0a.12.12,0,0,1,0,0l0,.05v0a2.54,2.54,0,0,0,.12.63,1.55,1.55,0,0,0,.29.51,2.42,2.42,0,0,0,.45.38l.26.21A2,2,0,0,1,58,34a2.21,2.21,0,0,1,.19.29l0,.07,0,0,0,.05,0,.14c.06.18.13.35.2.51a4.43,4.43,0,0,0,.45.83,4.87,4.87,0,0,0,.51.59l.45.45a4.68,4.68,0,0,1,.38.44q.31.5.59,1c.19.34.37.68.55,1l.53,1Z"/><path class="cls-6" d="M62.47,41.49l-.68-.93-.68-.93-.69-.91c-.25-.32-.49-.61-.72-.88h0s-.1-.14-.25-.31l-.37-.4,0,0a7.12,7.12,0,0,1-.5-.57,4.22,4.22,0,0,1-.51-.91c-.07-.17-.14-.35-.2-.55l-.09-.29,0-.17v0l0-.06a1.43,1.43,0,0,0-.32-.45l-.19-.17a4,4,0,0,1-.34-.32,1.92,1.92,0,0,1-.42-.72,2.66,2.66,0,0,1-.12-.84h0V32a.45.45,0,0,1,0-.08.18.18,0,0,1,.05-.07.15.15,0,0,1,.1,0h0l.1,0a.15.15,0,0,1,.05.06.21.21,0,0,1,0,.06h0v0h0a2.57,2.57,0,0,0,.12.62,1.52,1.52,0,0,0,.28.5,2.43,2.43,0,0,0,.44.38l.27.21A1.93,1.93,0,0,1,58,34a2,2,0,0,1,.19.29l0,.07,0,0,0,0h0l.05.14c.07.21.14.37.2.51a4.45,4.45,0,0,0,.45.82,4.67,4.67,0,0,0,.51.59l.16.16.29.29a4.69,4.69,0,0,1,.37.43h0v0c.19.31.39.64.59,1s.35.63.55,1l.52,1v0l.53,1ZM59.76,37.8h0c.23.27.47.56.72.88l.69.91.68.93.4.56-.31-.6v0l-.52-1c-.2-.39-.38-.71-.55-1s-.4-.69-.59-1h0a4.61,4.61,0,0,0-.37-.43l-.29-.29-.16-.16a4.53,4.53,0,0,1-.52-.59,4.46,4.46,0,0,1-.45-.84c-.06-.14-.12-.3-.2-.51l0-.14h0v0l0,0,0-.07A2.19,2.19,0,0,0,58,34a1.78,1.78,0,0,0-.24-.25l-.26-.21a2.46,2.46,0,0,1-.45-.39,1.59,1.59,0,0,1-.29-.52,2.67,2.67,0,0,1-.12-.63v0h0v0l0,0-.07,0-.05,0,0,0a.36.36,0,0,0,0,.07V32a2.61,2.61,0,0,0,.11.81,1.85,1.85,0,0,0,.41.7,3.78,3.78,0,0,0,.33.31l.19.17a1.49,1.49,0,0,1,.33.47l0,.06v0h0l0,.16.09.29c.06.2.13.38.2.54a4.2,4.2,0,0,0,.5.9,6.54,6.54,0,0,0,.49.57l0,0,.37.4a4,4,0,0,1,.26.31Z"/><path class="cls-5" d="M62.49,41.47l-1-.6-1-.6-1-.58q-.5-.28-1-.54s-.11-.07-.37-.2l-.49-.23a7.23,7.23,0,0,1-.72-.36,4.33,4.33,0,0,1-.82-.64c-.13-.13-.26-.28-.39-.43l-.19-.23-.1-.12h0l0,0a1.49,1.49,0,0,0-.48-.3c-.19-.07-.43-.13-.67-.24a1.88,1.88,0,0,1-.66-.5,2.66,2.66,0,0,1-.42-.72V35a.34.34,0,0,1,0-.07.15.15,0,0,1,0-.07.12.12,0,0,1,.06-.05h.09l.06,0,0,0,0,0a2.57,2.57,0,0,0,.35.53,1.57,1.57,0,0,0,.46.36,2.53,2.53,0,0,0,.56.19l.32.09a2.06,2.06,0,0,1,.33.14,2.1,2.1,0,0,1,.29.19l.06.05,0,0,0,0,.1.11.38.39a4.56,4.56,0,0,0,.73.59,4.92,4.92,0,0,0,.7.35l.59.25a5.06,5.06,0,0,1,.52.27q.48.34.93.7l.9.73.88.74Z"/><path class="cls-6" d="M62.48,41.5l-1-.6-1-.6-1-.58-1-.54h0L58.16,39l-.49-.22,0,0a7.18,7.18,0,0,1-.68-.34,4.33,4.33,0,0,1-.83-.65c-.13-.13-.26-.27-.4-.43l-.19-.23L55.42,37h0l0,0a1.45,1.45,0,0,0-.46-.29l-.24-.08a3.58,3.58,0,0,1-.44-.16,1.93,1.93,0,0,1-.67-.51,2.66,2.66,0,0,1-.43-.73h0v-.06a.43.43,0,0,1,0-.08.18.18,0,0,1,0-.09.16.16,0,0,1,.08-.07h.11l.07,0,0,.05h0l0,0h0a2.58,2.58,0,0,0,.35.53,1.52,1.52,0,0,0,.45.35,2.31,2.31,0,0,0,.55.18l.33.09a1.89,1.89,0,0,1,.33.15,2.1,2.1,0,0,1,.29.2l.07.05,0,0,0,0h0l.1.11.38.39a4.45,4.45,0,0,0,.73.59,4.74,4.74,0,0,0,.7.35l.21.09.38.16a5.56,5.56,0,0,1,.52.26h0c.3.21.6.44.93.7l.9.73.85.72,0,0,.88.74Zm-3.92-2.38h0c.32.16.65.34,1,.54l1,.58,1,.6.59.36-.53-.45,0,0L60.71,40l-.9-.73c-.33-.26-.63-.49-.93-.7h0a5.61,5.61,0,0,0-.51-.26L58,38.16l-.21-.09a4.58,4.58,0,0,1-.71-.35,4.38,4.38,0,0,1-.74-.6l-.38-.39-.1-.11h0l0,0,0,0-.06-.05a2.15,2.15,0,0,0-.28-.19,1.82,1.82,0,0,0-.32-.14l-.32-.09a2.38,2.38,0,0,1-.57-.19,1.6,1.6,0,0,1-.47-.37,2.63,2.63,0,0,1-.36-.53l0,0h0l0,0,0,0h-.07l0,0a.11.11,0,0,0,0,.05.53.53,0,0,0,0,.07v.06a2.53,2.53,0,0,0,.42.71,1.82,1.82,0,0,0,.64.49,3.85,3.85,0,0,0,.43.16l.24.08a1.52,1.52,0,0,1,.49.3l.05,0h0l.11.13.19.23c.14.16.26.3.39.42a4.09,4.09,0,0,0,.81.63,6.79,6.79,0,0,0,.67.34l0,0,.49.23c.21.1.32.17.36.19Z"/><path class="cls-5" d="M62.49,41.47l-1.14-.18-1.14-.18L59.08,41l-1.13-.11s-.13,0-.41,0l-.54,0a6.89,6.89,0,0,1-.8-.06,4.23,4.23,0,0,1-1-.28c-.17-.07-.35-.15-.53-.24L54.4,40,54.26,40h0l-.07,0a1.47,1.47,0,0,0-.55-.09c-.2,0-.45,0-.71,0a1.88,1.88,0,0,1-.8-.21,2.63,2.63,0,0,1-.67-.5l0-.05,0-.07a.17.17,0,0,1,0-.07.12.12,0,0,1,0-.07l.08,0h.06l.05,0,0,0a2.65,2.65,0,0,0,.53.36,1.58,1.58,0,0,0,.56.16,2.52,2.52,0,0,0,.59,0l.33,0H54l.34.07.08,0,0,0,.05,0,.13.06.5.22A4.36,4.36,0,0,0,56,40a4.54,4.54,0,0,0,.78.06h.64a4.93,4.93,0,0,1,.58,0c.38.09.76.19,1.13.29l1.11.33,1.1.35Z"/><path class="cls-6" d="M62.49,41.5l-1.14-.18-1.14-.18L59.08,41l-1.13-.12h0l-.4,0-.54,0h0a6.4,6.4,0,0,1-.75-.06,4.21,4.21,0,0,1-1-.28l-.53-.25-.27-.14L54.23,40h0l-.06,0a1.41,1.41,0,0,0-.54-.09h-.25a4.17,4.17,0,0,1-.46,0,1.92,1.92,0,0,1-.81-.21,2.65,2.65,0,0,1-.68-.51h0l0,0v0l0-.07a.18.18,0,0,1,0-.09.15.15,0,0,1,0-.09h0l.1,0h.08l.06,0h0l0,0h0a2.56,2.56,0,0,0,.52.35,1.56,1.56,0,0,0,.55.16h.12a3.23,3.23,0,0,0,.46,0l.34,0a2.14,2.14,0,0,1,.36,0,2.09,2.09,0,0,1,.34.07l.08,0,0,0,0,0h0l.13.06.5.22a4.49,4.49,0,0,0,.9.27,4.66,4.66,0,0,0,.78.05h.64a5.31,5.31,0,0,1,.56,0h0l1.13.29,1.11.33,1.08.35h0l1.1.35ZM58,40.8h0l1.13.11,1.14.16,1.14.18.68.11-.66-.21h0l-1.08-.34-1.11-.33c-.4-.11-.77-.21-1.13-.29h0a4.58,4.58,0,0,0-.57,0h-.64a4,4,0,0,1-1.7-.33l-.5-.22-.13-.06h0l0,0,0,0-.08,0a1.86,1.86,0,0,0-.33-.07,1.81,1.81,0,0,0-.35,0l-.33,0a3.11,3.11,0,0,1-.48,0H52.7a1.59,1.59,0,0,1-.58-.16,2.5,2.5,0,0,1-.53-.36l0,0h0l0,0h0l-.06,0a.09.09,0,0,0,0,0,.1.1,0,0,0,0,.05l0,.06v0l0,0a2.62,2.62,0,0,0,.66.5,1.86,1.86,0,0,0,.78.2,3.79,3.79,0,0,0,.46,0l.25,0h0a1.52,1.52,0,0,1,.53.1l.07,0h0l.15.08.27.14.53.24a4.07,4.07,0,0,0,1,.28,6.27,6.27,0,0,0,.75.06h0l.54,0a3.56,3.56,0,0,1,.4,0Z"/><path class="cls-5" d="M62.49,41.47l-1.12.27L60.25,42l-1.11.29c-.37.1-.73.21-1.09.32,0,0-.13,0-.4.12l-.51.19a7.43,7.43,0,0,1-.76.25,4.16,4.16,0,0,1-1,.12l-.58,0-.3,0-.15,0H54.2a1.44,1.44,0,0,0-.55.13c-.18.08-.4.21-.65.3a1.92,1.92,0,0,1-.82.11,2.68,2.68,0,0,1-.81-.21l-.05,0-.06,0a.15.15,0,0,1,0-.06.14.14,0,0,1,0-.08.19.19,0,0,1,.06-.07l.06,0h.11a2.71,2.71,0,0,0,.63.13,1.62,1.62,0,0,0,.58-.07,2.49,2.49,0,0,0,.53-.26l.29-.16a1.84,1.84,0,0,1,.33-.13,2,2,0,0,1,.34-.06H55a4.4,4.4,0,0,0,.94-.1,4.71,4.71,0,0,0,.74-.25l.6-.24a5.22,5.22,0,0,1,.56-.18L59,41.78l1.16-.12,1.15-.1Z"/><path class="cls-6" d="M52.35,43.8h-.16a2.65,2.65,0,0,1-.82-.22h0l0,0h0l-.06,0a.17.17,0,0,1,0-.08.15.15,0,0,1,0-.1h0a.25.25,0,0,1,.07-.08l.08,0h.12a2.49,2.49,0,0,0,.62.13,1.57,1.57,0,0,0,.57-.07,2.52,2.52,0,0,0,.52-.26l.29-.17a2.09,2.09,0,0,1,.34-.13l.35-.07H55a4.57,4.57,0,0,0,.93-.09,4.65,4.65,0,0,0,.74-.25l.22-.09.38-.15a4.89,4.89,0,0,1,.53-.18h0c.36-.06.74-.11,1.16-.16l1.16-.12,1.12-.09h0l1.13-.09v.07l-1.12.27L60.26,42l-1.11.29-1.09.32h0l-.38.12-.51.19,0,0a6.8,6.8,0,0,1-.72.24,4.26,4.26,0,0,1-1,.13h0l-.56,0-.3,0-.18,0H54.2a1.42,1.42,0,0,0-.54.12l-.22.11a4.23,4.23,0,0,1-.42.19A1.9,1.9,0,0,1,52.35,43.8Zm-1-.28a2.65,2.65,0,0,0,.8.21,1.9,1.9,0,0,0,.8-.11,3.52,3.52,0,0,0,.42-.19l.23-.11a1.49,1.49,0,0,1,.56-.13h.11l.17,0,.3,0,.55,0h0a4.24,4.24,0,0,0,1-.12,7.18,7.18,0,0,0,.71-.23l0,0,.51-.19.39-.12h0l1.09-.32L60.24,42l1.12-.27.67-.16-.67.05h0l-1.12.09L59,41.81,57.89,42h0a5.14,5.14,0,0,0-.54.18L57,42.3l-.22.09a4.64,4.64,0,0,1-.75.25,4.51,4.51,0,0,1-.95.1h-.88l-.33.06a1.82,1.82,0,0,0-.33.13l-.29.16a2.4,2.4,0,0,1-.54.27,1.62,1.62,0,0,1-.6.07,2.63,2.63,0,0,1-.63-.13h-.14l0,.05a.08.08,0,0,0,0,.06l0,0,.05,0h0Z"/><path class="cls-5" d="M62.49,41.47l-.93.67-.93.67-.92.69q-.45.35-.88.72s-.11.08-.32.26l-.4.37a7.12,7.12,0,0,1-.61.52,4.23,4.23,0,0,1-.91.51l-.55.2-.29.09-.15,0h0l-.06,0a1.46,1.46,0,0,0-.46.33c-.14.14-.29.35-.48.52a1.89,1.89,0,0,1-.71.41,2.69,2.69,0,0,1-.83.11H53l-.07,0-.06,0a.12.12,0,0,1,0-.08.17.17,0,0,1,0-.08l0,0,.06,0h0a2.58,2.58,0,0,0,.63-.12,1.56,1.56,0,0,0,.51-.29,2.47,2.47,0,0,0,.39-.44c.06-.09.13-.18.21-.27A2,2,0,0,1,55,46a2,2,0,0,1,.29-.19l.07,0,0,0,.05,0,.14,0,.51-.2a4.58,4.58,0,0,0,.83-.45,4.74,4.74,0,0,0,.59-.51L58,44a4.9,4.9,0,0,1,.44-.38l1-.59,1-.55,1-.53Z"/><path class="cls-6" d="M53,47.67H53l-.08,0-.07-.05a.16.16,0,0,1,0-.1h0a.23.23,0,0,1,0-.1.15.15,0,0,1,.06-.05l.06,0H53a2.52,2.52,0,0,0,.62-.12,1.54,1.54,0,0,0,.5-.28,2.43,2.43,0,0,0,.38-.44c.06-.08.13-.18.21-.27a1.92,1.92,0,0,1,.26-.25,2.08,2.08,0,0,1,.29-.19l.08,0,0,0,0,0h0l.14,0,.51-.2A4.46,4.46,0,0,0,56.9,45a4.71,4.71,0,0,0,.59-.51l.16-.17.29-.29a5.1,5.1,0,0,1,.43-.37h0c.31-.19.64-.39,1-.59l1-.55,1-.51,0,0,1-.52,0,.06-.93.67-.93.67-.91.69c-.32.25-.61.48-.88.72h0a3.75,3.75,0,0,0-.31.25l-.4.37,0,0a6.63,6.63,0,0,1-.58.49,4.33,4.33,0,0,1-.91.51l-.55.2-.29.09-.17,0h0l-.06,0a1.43,1.43,0,0,0-.45.32l-.17.19a3.69,3.69,0,0,1-.32.34,1.92,1.92,0,0,1-.72.42A2.62,2.62,0,0,1,53,47.67Zm0-.07h0a2.57,2.57,0,0,0,.8-.11,1.84,1.84,0,0,0,.7-.4,3.84,3.84,0,0,0,.31-.33l.17-.19a1.5,1.5,0,0,1,.47-.33l.06,0h0l.16,0L56,46l.54-.2a4.24,4.24,0,0,0,.9-.5,7.13,7.13,0,0,0,.57-.49l0,0,.4-.37a4,4,0,0,1,.31-.25h0c.27-.23.56-.47.88-.72l.92-.69.93-.67.56-.4-.6.31,0,0-1,.51-1,.55c-.37.2-.7.4-1,.59h0a4.89,4.89,0,0,0-.43.37l-.29.29-.16.16a4.71,4.71,0,0,1-.6.51,4.48,4.48,0,0,1-.84.45l-.51.2-.14.05h0l0,0-.07,0A2,2,0,0,0,55,46a1.8,1.8,0,0,0-.25.24,3.29,3.29,0,0,0-.21.26,2.47,2.47,0,0,1-.39.45,1.58,1.58,0,0,1-.52.29,2.57,2.57,0,0,1-.63.12h-.1l0,0a.14.14,0,0,0,0,.07.1.1,0,0,0,0,.05l0,0,.06,0H53Z"/><path class="cls-5" d="M62.49,41.47l-.6,1-.6,1c-.2.33-.39.65-.58,1s-.37.66-.54,1c0,0-.07.11-.2.37l-.23.49a7.28,7.28,0,0,1-.36.71,4.14,4.14,0,0,1-.64.81c-.13.13-.28.26-.43.39l-.23.19-.12.1h0l0,.05a1.46,1.46,0,0,0-.3.47c-.07.19-.13.43-.24.67a1.9,1.9,0,0,1-.5.65,2.73,2.73,0,0,1-.72.42H55.9a.13.13,0,0,1-.05-.06.18.18,0,0,1,0-.09.09.09,0,0,1,0-.05l0,0,0,0a2.61,2.61,0,0,0,.53-.35,1.61,1.61,0,0,0,.37-.46,2.42,2.42,0,0,0,.19-.56c0-.1.05-.21.09-.32a2,2,0,0,1,.14-.32,2.17,2.17,0,0,1,.2-.29l.05-.06,0,0,0,0,.11-.1.4-.38a4.46,4.46,0,0,0,.6-.73,4.85,4.85,0,0,0,.35-.7c.09-.22.17-.43.25-.59a4.65,4.65,0,0,1,.27-.52c.23-.32.46-.62.7-.93s.49-.6.73-.9l.75-.88Z"/><path class="cls-6" d="M56,50.83h0l-.09,0a.18.18,0,0,1-.07-.08h0a.21.21,0,0,1,0-.11.16.16,0,0,1,0-.07l.05,0h0l0,0h0a2.55,2.55,0,0,0,.53-.35,1.47,1.47,0,0,0,.36-.45,2.42,2.42,0,0,0,.18-.55c0-.1.05-.21.09-.32a1.85,1.85,0,0,1,.15-.33,2.23,2.23,0,0,1,.2-.29l.05-.06,0,0,0,0h0l.11-.1.39-.37a4.39,4.39,0,0,0,.59-.72,4.57,4.57,0,0,0,.35-.69l.09-.21.16-.38a4.73,4.73,0,0,1,.26-.5h0v0c.21-.3.44-.6.71-.93l.73-.9.72-.85,0,0,.74-.87.06,0-.6,1-.6,1c-.23.37-.41.68-.58,1s-.38.68-.54,1h0v0s-.09.14-.19.35l-.23.49,0,0a6.66,6.66,0,0,1-.34.67,4.25,4.25,0,0,1-.65.82c-.13.13-.27.26-.43.39l-.23.19-.14.11h0l0,.05a1.43,1.43,0,0,0-.29.46c0,.07-.05.15-.08.24a4,4,0,0,1-.16.43,1.92,1.92,0,0,1-.51.66,2.67,2.67,0,0,1-.73.43H56Zm-.09-.12a.08.08,0,0,0,0,0h.18a2.61,2.61,0,0,0,.71-.41,1.86,1.86,0,0,0,.49-.64,3.58,3.58,0,0,0,.16-.43l.08-.24a1.49,1.49,0,0,1,.3-.48l0-.05h0l.13-.11.23-.19c.16-.14.3-.26.43-.39a4.13,4.13,0,0,0,.64-.81,6.34,6.34,0,0,0,.34-.67l0,0,.23-.49c.1-.21.17-.32.19-.35h0c.16-.32.34-.65.54-1s.36-.61.58-1l.6-1,.36-.58-.44.51,0,0-.72.85-.73.89c-.26.33-.49.63-.7.92h0a5.26,5.26,0,0,0-.26.51l-.16.38-.09.21a4.64,4.64,0,0,1-.35.7,4.33,4.33,0,0,1-.6.74l-.4.38-.11.1h0l0,0,0,0-.05.06a2.07,2.07,0,0,0-.19.28,1.85,1.85,0,0,0-.14.32c0,.11-.06.22-.09.32a2.42,2.42,0,0,1-.19.57,1.6,1.6,0,0,1-.37.47,2.69,2.69,0,0,1-.54.36l0,0h0l0,0,0,0A.15.15,0,0,0,55.88,50.7Z"/><path class="cls-5" d="M62.49,41.47c-.06.38-.12.76-.18,1.13s-.12.76-.18,1.13-.11.75-.16,1.13-.09.75-.12,1.13c0,0,0,.13,0,.41s0,.32,0,.54a7.08,7.08,0,0,1-.06.79,4.14,4.14,0,0,1-.28,1c-.07.17-.15.35-.25.53l-.14.27-.07.13h0v0l0,.07a1.43,1.43,0,0,0-.09.55c0,.2,0,.45,0,.71a1.88,1.88,0,0,1-.21.79,2.64,2.64,0,0,1-.51.67l-.05,0-.07,0H60a.13.13,0,0,1-.07,0,.17.17,0,0,1,0-.08.11.11,0,0,1,0-.06l0-.05,0,0a2.56,2.56,0,0,0,.36-.53,1.57,1.57,0,0,0,.16-.56,2.42,2.42,0,0,0,0-.59c0-.1,0-.21,0-.33a2,2,0,0,1,0-.36,2.18,2.18,0,0,1,.07-.34l0-.08,0,0,0-.05.06-.13c.08-.17.16-.34.22-.5a4.43,4.43,0,0,0,.27-.9,4.79,4.79,0,0,0,.06-.78c0-.24,0-.46,0-.64a4.35,4.35,0,0,1,0-.58c.09-.38.19-.75.29-1.13s.22-.74.33-1.11l.35-1.1C62.26,42.2,62.38,41.84,62.49,41.47Z"/><path class="cls-6" d="M60,52.61h0a.17.17,0,0,1-.09,0h0a.2.2,0,0,1,0-.09.15.15,0,0,1,0-.08l0-.06h0l0,0h0a2.49,2.49,0,0,0,.35-.52,1.54,1.54,0,0,0,.16-.55,2.45,2.45,0,0,0,0-.58c0-.09,0-.21,0-.34a1.87,1.87,0,0,1,0-.36,2.12,2.12,0,0,1,.07-.34l0-.08,0,0,0,0h0l.06-.13c.09-.2.16-.36.22-.5a4.4,4.4,0,0,0,.27-.89,4.62,4.62,0,0,0,.06-.77c0-.08,0-.16,0-.23s0-.29,0-.41a4.91,4.91,0,0,1,0-.57h0v0c.08-.35.18-.72.29-1.13s.2-.7.33-1.11l.34-1.06,0,0,.35-1.08.07,0c-.06.39-.12.79-.18,1.13s-.12.75-.18,1.13-.12.79-.16,1.13-.09.77-.12,1.13h0v0s0,.17,0,.4,0,.31,0,.53V47a6.61,6.61,0,0,1-.06.75,4.26,4.26,0,0,1-.28,1c-.07.17-.15.34-.25.53l-.14.27-.09.16v0l0,.06a1.41,1.41,0,0,0-.09.54c0,.08,0,.16,0,.25a3.87,3.87,0,0,1,0,.46,1.9,1.9,0,0,1-.21.81,2.64,2.64,0,0,1-.51.67h0l0,0h0l-.07,0Zm-.06-.1,0,0H60l.06,0h0l0,0a2.58,2.58,0,0,0,.5-.66,1.84,1.84,0,0,0,.21-.78,3.94,3.94,0,0,0,0-.46c0-.09,0-.17,0-.25a1.5,1.5,0,0,1,.09-.56l0-.07v0h0l.08-.15.14-.27c.1-.19.18-.36.24-.52a4.15,4.15,0,0,0,.28-1,6.23,6.23,0,0,0,.06-.74v-.06c0-.22,0-.39,0-.53a3.68,3.68,0,0,1,0-.4h0c0-.36.07-.73.12-1.13s.09-.7.16-1.13.12-.76.18-1.13l.11-.68-.21.64v0l-.34,1.06c-.13.41-.24.77-.33,1.11s-.21.77-.29,1.12h0a4.73,4.73,0,0,0,0,.57c0,.12,0,.26,0,.41s0,.15,0,.23a4.59,4.59,0,0,1-.06.79,4.51,4.51,0,0,1-.27.91c-.06.14-.13.3-.22.5l-.06.13h0l0,0,0,0,0,.08a2.09,2.09,0,0,0-.07.33,2,2,0,0,0,0,.35c0,.12,0,.24,0,.33a2.43,2.43,0,0,1,0,.6,1.59,1.59,0,0,1-.16.58,2.6,2.6,0,0,1-.36.53l0,0h0l0,0a.08.08,0,0,0,0,0A.13.13,0,0,0,59.93,52.52Z"/><path class="cls-5" d="M62.49,41.47c.09.37.18.74.27,1.12s.18.74.27,1.12.19.74.29,1.11.21.73.33,1.09a4,4,0,0,0,.12.4l.19.51a7,7,0,0,1,.25.76,4.19,4.19,0,0,1,.12,1c0,.19,0,.38,0,.58s0,.2,0,.3l0,.15v0h0v0s0,0,0,.07a1.42,1.42,0,0,0,.13.54c.08.18.21.4.3.65a1.88,1.88,0,0,1,.11.81,2.66,2.66,0,0,1-.21.81l0,.05,0,.06-.06,0h-.08a.17.17,0,0,1-.07-.06.11.11,0,0,1,0-.06.33.33,0,0,1,0-.06.25.25,0,0,0,0,0,2.64,2.64,0,0,0,.13-.62,1.54,1.54,0,0,0-.07-.58,2.37,2.37,0,0,0-.26-.53c-.06-.09-.11-.19-.17-.29a2,2,0,0,1-.13-.33,2.15,2.15,0,0,1-.07-.34s0-.05,0-.08v-.05s0,0,0-.06v-.15c0-.19,0-.37,0-.54a4.37,4.37,0,0,0-.1-.94,4.55,4.55,0,0,0-.25-.74c-.09-.22-.18-.42-.24-.59a4.34,4.34,0,0,1-.18-.55c-.06-.38-.12-.77-.16-1.15s-.08-.77-.12-1.15-.06-.76-.1-1.15S62.53,41.85,62.49,41.47Z"/><path class="cls-6" d="M64.41,52.73h-.06a.21.21,0,0,1-.08-.07.15.15,0,0,1,0-.08.27.27,0,0,1,0-.06h0a.21.21,0,0,0,0,0h0a2.58,2.58,0,0,0,.13-.62,1.55,1.55,0,0,0-.07-.57,2.39,2.39,0,0,0-.26-.52c-.05-.09-.11-.19-.17-.3a1.88,1.88,0,0,1-.13-.34,2.2,2.2,0,0,1-.07-.35v-.14s0,0,0,0h0v-.15c0-.22,0-.39,0-.54a4.52,4.52,0,0,0-.1-.93,4.77,4.77,0,0,0-.25-.74L63.27,47l-.15-.38a4.74,4.74,0,0,1-.18-.53h0v0c-.06-.36-.11-.74-.16-1.15s-.08-.72-.12-1.15-.06-.73-.09-1.09v-.06c0-.37-.06-.76-.1-1.14h.07c.09.38.18.75.27,1.12s.18.75.27,1.12.2.78.29,1.1.21.75.33,1.09h0v0a3.82,3.82,0,0,0,.12.38c0,.13.11.31.19.51l0,0a6.67,6.67,0,0,1,.24.71,4.22,4.22,0,0,1,.12,1c0,.18,0,.37,0,.58s0,.18,0,.3l0,.17h0v0s0,0,0,.07a1.43,1.43,0,0,0,.12.53l.11.23a3.79,3.79,0,0,1,.19.42,1.9,1.9,0,0,1,.11.83,2.65,2.65,0,0,1-.21.82h0l0,0v0l-.05.06-.08,0Zm0-.08h.06l0,0,0-.05v0l0,0a2.56,2.56,0,0,0,.21-.79,1.85,1.85,0,0,0-.11-.8,3.92,3.92,0,0,0-.19-.41l-.11-.23a1.52,1.52,0,0,1-.13-.56s0,0,0-.07v0h0l0-.17c0-.12,0-.21,0-.3s0-.4,0-.58a4.18,4.18,0,0,0-.12-1,6.85,6.85,0,0,0-.23-.71l0,0c-.08-.2-.14-.37-.19-.51s-.11-.34-.12-.39h0c-.11-.34-.22-.7-.33-1.09s-.19-.69-.29-1.11l-.27-1.12-.16-.67.06.69v.06c0,.36.06.72.09,1.09s.08.8.12,1.15.1.79.16,1.15h0a4.61,4.61,0,0,0,.18.54l.15.38.09.21a4.65,4.65,0,0,1,.25.75,4.4,4.4,0,0,1,.1.94c0,.15,0,.33,0,.55v.15h0s0,0,0,0v.13a1.94,1.94,0,0,0,.06.33,1.81,1.81,0,0,0,.13.33c.05.11.11.2.16.29a2.49,2.49,0,0,1,.27.53,1.59,1.59,0,0,1,.07.59,2.61,2.61,0,0,1-.13.63v0h0a.3.3,0,0,0,0,0,.09.09,0,0,0,0,0Z"/><path class="cls-5" d="M62.49,41.47l.68.93.68.93.69.91c.23.3.47.59.72.88,0,0,.08.11.26.32l.37.4a6.86,6.86,0,0,1,.52.6,4.11,4.11,0,0,1,.51.9c.07.17.14.35.2.55l.09.29,0,.15v0h0v0l0,.06a1.45,1.45,0,0,0,.33.46c.14.14.35.29.53.48a1.86,1.86,0,0,1,.41.71,2.63,2.63,0,0,1,.12.83V51l0,.07a.15.15,0,0,1,0,.06.13.13,0,0,1-.08,0l-.08,0a.11.11,0,0,1,0,0,.24.24,0,0,1,0-.06v0a2.51,2.51,0,0,0-.12-.62,1.53,1.53,0,0,0-.29-.51,2.39,2.39,0,0,0-.45-.39l-.26-.21A1.88,1.88,0,0,1,67,49a2,2,0,0,1-.19-.29l0-.07,0,0,0-.05,0-.14c-.07-.18-.13-.35-.2-.51A4.41,4.41,0,0,0,66,47a4.72,4.72,0,0,0-.51-.59L65.07,46a4.43,4.43,0,0,1-.38-.44c-.21-.33-.4-.67-.59-1s-.37-.68-.55-1l-.53-1Z"/><path class="cls-6" d="M68.53,51.16h0a.2.2,0,0,1-.1,0,.15.15,0,0,1-.05-.06.2.2,0,0,1,0-.06h0v0h0a2.48,2.48,0,0,0-.12-.62,1.52,1.52,0,0,0-.28-.5,2.4,2.4,0,0,0-.44-.38l-.27-.21A2,2,0,0,1,67,49a2.06,2.06,0,0,1-.19-.3l0-.07,0,0,0,0h0l0-.14c-.07-.2-.14-.37-.2-.51A4.38,4.38,0,0,0,66,47a4.72,4.72,0,0,0-.51-.58l-.16-.16L65,46a4.72,4.72,0,0,1-.37-.43h0v0c-.19-.31-.39-.64-.59-1s-.35-.64-.55-1L63,42.58l0-.08-.53-1,.06,0,.68.93.68.93.69.91c.25.32.49.61.72.88h0s.1.14.25.31l.37.4,0,0a6.76,6.76,0,0,1,.49.57,4.26,4.26,0,0,1,.51.91c.07.17.14.34.2.55l.09.29.05.17v0l0,.06a1.41,1.41,0,0,0,.32.45l.19.17a4.1,4.1,0,0,1,.34.32,1.92,1.92,0,0,1,.42.72,2.68,2.68,0,0,1,.12.84h0V51a.4.4,0,0,1,0,.08.19.19,0,0,1-.05.07.15.15,0,0,1-.1,0Zm-.12-.22v0h0v0l0,0,.07,0,.05,0,0,0,0-.06V50.9a2.57,2.57,0,0,0-.11-.81,1.83,1.83,0,0,0-.41-.7,3.68,3.68,0,0,0-.33-.31l-.19-.17a1.46,1.46,0,0,1-.33-.46l0-.06v0h0l0-.16-.09-.29c-.06-.2-.13-.38-.2-.54a4.08,4.08,0,0,0-.51-.9,6.48,6.48,0,0,0-.49-.56l0,0-.37-.4c-.15-.17-.23-.28-.26-.31h0c-.23-.27-.47-.56-.72-.88l-.69-.91-.68-.93-.4-.55.31.61,0,.08.49.94c.2.38.38.71.55,1s.4.69.59,1h0a5.08,5.08,0,0,0,.37.43l.29.29.16.16a4.58,4.58,0,0,1,.52.59,4.4,4.4,0,0,1,.45.84c.06.14.13.3.2.51l0,.14h0v0l0,0,0,.07a2,2,0,0,0,.19.28,1.69,1.69,0,0,0,.24.25l.26.21a2.49,2.49,0,0,1,.45.39,1.59,1.59,0,0,1,.29.52A2.59,2.59,0,0,1,68.41,50.94Z"/><path class="cls-5" d="M62.49,41.47l1,.6,1,.6,1,.58q.5.28,1,.54s.11.07.37.2l.49.23a7.15,7.15,0,0,1,.71.36,4.2,4.2,0,0,1,.82.64c.13.13.26.28.39.43l.19.23.1.12h0l.05,0a1.49,1.49,0,0,0,.47.3c.19.07.43.13.67.24a1.88,1.88,0,0,1,.65.5,2.63,2.63,0,0,1,.42.72v.06a.43.43,0,0,1,0,.07.15.15,0,0,1,0,.07.12.12,0,0,1-.06.05h-.09l-.06,0,0,0,0,0a2.55,2.55,0,0,0-.35-.53,1.59,1.59,0,0,0-.46-.36,2.51,2.51,0,0,0-.56-.18l-.32-.09a2,2,0,0,1-.33-.14,2.07,2.07,0,0,1-.29-.2l-.07-.05,0,0,0,0-.1-.11-.38-.39a4.52,4.52,0,0,0-.73-.59,4.66,4.66,0,0,0-.7-.35l-.59-.25a4.63,4.63,0,0,1-.52-.26c-.32-.23-.63-.46-.93-.7l-.9-.73-.88-.74Z"/><path class="cls-6" d="M71.72,48.13h0l-.07,0,0-.05h0l0,0h0a2.54,2.54,0,0,0-.35-.53,1.53,1.53,0,0,0-.45-.35,2.42,2.42,0,0,0-.55-.18l-.33-.09a2,2,0,0,1-.33-.15,2.18,2.18,0,0,1-.29-.2l-.07-.05,0,0,0,0h0l-.1-.11-.38-.39a4.34,4.34,0,0,0-.73-.59,4.61,4.61,0,0,0-.7-.35L67,44.84l-.38-.16a5,5,0,0,1-.52-.26h0c-.3-.21-.6-.44-.93-.7l-.9-.73-.82-.69-.06,0-.88-.74,0-.06,1,.6,1,.6,1,.58,1,.54h0l.35.19.49.23,0,0a6.86,6.86,0,0,1,.68.34,4.24,4.24,0,0,1,.83.64c.13.13.26.27.4.43l.19.23.11.14h0l0,0a1.44,1.44,0,0,0,.46.29l.24.08a3.58,3.58,0,0,1,.44.16,1.92,1.92,0,0,1,.67.51,2.69,2.69,0,0,1,.43.73h0v.06a.46.46,0,0,1,0,.08.19.19,0,0,1,0,.09.16.16,0,0,1-.08.07h-.08ZM71.6,48l0,0h0l0,0,0,0h.07l0,0a.11.11,0,0,0,0-.05.34.34,0,0,0,0-.07v-.06a2.6,2.6,0,0,0-.42-.71,1.86,1.86,0,0,0-.64-.49,3.9,3.9,0,0,0-.43-.16l-.24-.08a1.5,1.5,0,0,1-.49-.3l-.05,0h0l-.11-.13-.19-.23c-.14-.16-.26-.3-.39-.42A4.21,4.21,0,0,0,68,44.6a6.77,6.77,0,0,0-.67-.34l0,0L66.8,44l-.36-.19h0c-.32-.16-.65-.34-1-.54l-1-.58-1-.6-.59-.36.53.44.06.05.82.69.9.73c.33.26.63.49.93.7h0a4.84,4.84,0,0,0,.51.26l.38.16.21.09a4.61,4.61,0,0,1,.71.35,4.39,4.39,0,0,1,.74.6l.38.39.1.11h0l0,0,0,0,.06.05a2.12,2.12,0,0,0,.28.19,1.86,1.86,0,0,0,.32.14l.32.09a2.42,2.42,0,0,1,.57.19,1.59,1.59,0,0,1,.47.37A2.59,2.59,0,0,1,71.6,48Z"/><path class="cls-5" d="M62.49,41.47l1.14.18,1.14.18,1.13.16q.57.07,1.13.12s.13,0,.41,0l.54,0a7.41,7.41,0,0,1,.8.06,4.2,4.2,0,0,1,1,.28l.53.24.27.14.14.07h0l.07,0a1.47,1.47,0,0,0,.55.09c.2,0,.45,0,.71,0a1.91,1.91,0,0,1,.8.21,2.64,2.64,0,0,1,.67.5l0,.05,0,.06a.16.16,0,0,1,0,.07.14.14,0,0,1,0,.07l-.08,0h-.06l0,0,0,0a2.57,2.57,0,0,0-.53-.36,1.54,1.54,0,0,0-.56-.16,2.47,2.47,0,0,0-.59,0l-.33,0a1.91,1.91,0,0,1-.36,0,2.06,2.06,0,0,1-.34-.07l-.08,0,0,0-.05,0-.13-.06-.5-.22a4.41,4.41,0,0,0-.91-.27,4.63,4.63,0,0,0-.78-.06h-.64a4.89,4.89,0,0,1-.58,0c-.38-.09-.76-.19-1.13-.29l-1.11-.33-1.1-.35Z"/><path class="cls-6" d="M73.51,44.12h-.05l-.06,0,0,0h0a2.55,2.55,0,0,0-.52-.35,1.53,1.53,0,0,0-.55-.15h-.12a3.26,3.26,0,0,0-.46,0l-.34,0a2.05,2.05,0,0,1-.36,0,2.13,2.13,0,0,1-.34-.07l-.08,0,0,0,0,0h0l-.13-.06-.5-.22a4.47,4.47,0,0,0-.9-.27,4.67,4.67,0,0,0-.78-.06h-.64a5.1,5.1,0,0,1-.56,0h0c-.36-.08-.73-.18-1.13-.29l-1.11-.33-1.05-.33-.05,0-1.09-.35,0-.07,1.14.18,1.14.18,1.13.16,1.13.12h0l.4,0,.54,0h0a6.43,6.43,0,0,1,.75.06,4.3,4.3,0,0,1,1,.28l.53.24.27.14.16.09h0l.06,0a1.42,1.42,0,0,0,.54.09h.25a3.76,3.76,0,0,1,.46,0,1.92,1.92,0,0,1,.81.21,2.66,2.66,0,0,1,.68.51h0l0,0v0l0,.07a.19.19,0,0,1,0,.09.16.16,0,0,1,0,.09h0l-.09,0ZM73.4,44l0,0,0,0h0l.06,0a.08.08,0,0,0,0,0,.12.12,0,0,0,0-.06l0-.06v0l0,0a2.59,2.59,0,0,0-.66-.49,1.85,1.85,0,0,0-.78-.21,3.8,3.8,0,0,0-.46,0l-.25,0h0a1.52,1.52,0,0,1-.53-.09l-.07,0h0l-.15-.08-.27-.14-.53-.24a4.18,4.18,0,0,0-1-.28A7,7,0,0,0,68,42.2h0l-.54,0-.4,0h0L65.9,42l-1.14-.16-1.14-.18-.68-.11.65.21.05,0,1.05.33,1.11.33,1.13.29h0a5,5,0,0,0,.57,0h.64a4.7,4.7,0,0,1,.79.06,4.43,4.43,0,0,1,.91.27l.5.22.13.06h0l0,0,0,0,.08,0a2,2,0,0,0,.33.07,1.82,1.82,0,0,0,.35,0l.33,0a3.13,3.13,0,0,1,.48,0h.12a1.65,1.65,0,0,1,.58.16A2.57,2.57,0,0,1,73.4,44Z"/><ellipse class="cls-5" cx="62.5" cy="41.5" rx="4.58" ry="4.57"/><path class="cls-6" d="M62.5,46.1a4.6,4.6,0,1,1,4.62-4.6A4.62,4.62,0,0,1,62.5,46.1Zm0-9.13A4.53,4.53,0,1,0,67,41.5,4.55,4.55,0,0,0,62.5,37Z"/><path class="cls-6" d="M61.05,35.32l0,.11.08.22.17.44a4.28,4.28,0,0,1,.26.88v0l.2,0v-.05a4.43,4.43,0,0,0-.33-.89l-.2-.42-.09-.21,0-.11,0-.11a2.84,2.84,0,0,1-.07-.46,3.34,3.34,0,0,1,0-.46,3.52,3.52,0,0,0,0,.47,2.92,2.92,0,0,0,0,.47S61,35.28,61.05,35.32Z"/><path class="cls-6" d="M58.72,36.24l.07.1.08.09.16.18.32.34a4.19,4.19,0,0,1,.57.71l0,0,.17-.11,0,0a4.42,4.42,0,0,0-.64-.7l-.34-.32-.16-.16-.08-.09-.07-.09a2.62,2.62,0,0,1-.24-.39,3.47,3.47,0,0,1-.18-.43,3.57,3.57,0,0,0,.15.44A2.85,2.85,0,0,0,58.72,36.24Z"/><path class="cls-6" d="M62.5,36.93h.14l-.09-3-.13,3Z"/><path class="cls-6" d="M60.87,37.23l-1.24-2.74,1,2.83Z"/><path class="cls-6" d="M58.32,39.63l-2.83-1.07,2.74,1.27Z"/><path class="cls-6" d="M57,38.08l.1.07.1.06.21.1.43.19a4.27,4.27,0,0,1,.8.44l0,0,.12-.17,0,0a4.45,4.45,0,0,0-.87-.4l-.44-.16-.21-.09-.11,0L57,38a2.89,2.89,0,0,1-.37-.27,3.41,3.41,0,0,1-.33-.33,3.53,3.53,0,0,0,.31.35A2.78,2.78,0,0,0,57,38.08Z"/><path class="cls-6" d="M59.36,38.18l-2.2-2.06,2,2.22Z"/><path class="cls-6" d="M67.68,37.8l-.09.08-.18.15-.34.32a4.36,4.36,0,0,1-.71.57l0,0,.11.17,0,0a4.38,4.38,0,0,0,.7-.64l.32-.34.16-.17.08-.08.09-.07a2.94,2.94,0,0,1,.39-.24,3.53,3.53,0,0,1,.43-.18,3.65,3.65,0,0,0-.44.15,2.79,2.79,0,0,0-.42.21Z"/><path class="cls-6" d="M68.82,40l-.12,0-.11,0-.22.08-.44.17a4.23,4.23,0,0,1-.88.26H67c0,.07,0,.13,0,.2h.05a4.47,4.47,0,0,0,.9-.33l.42-.2.21-.09.11,0,.11,0a2.73,2.73,0,0,1,.46-.07,3.41,3.41,0,0,1,.47,0,3.42,3.42,0,0,0-.47,0A3,3,0,0,0,68.82,40Z"/><path class="cls-6" d="M64.38,37.33l1.07-2.81-1.27,2.73Z"/><path class="cls-6" d="M70.1,41.55l-3-.13s0,.05,0,.08,0,.09,0,.14Z"/><path class="cls-6" d="M66.79,39.88l2.75-1.24-2.84,1Z"/><path class="cls-6" d="M56.1,40.44l.12,0H57a4.23,4.23,0,0,1,.91.1H58l0-.2H58a4.35,4.35,0,0,0-1,0l-.47,0h-.46a2.82,2.82,0,0,1-.45-.11,3.85,3.85,0,0,1-.43-.17,3.65,3.65,0,0,0,.42.21A2.74,2.74,0,0,0,56.1,40.44Z"/><path class="cls-6" d="M65,37.7l.17.12,0,0a4.34,4.34,0,0,0,.4-.86l.16-.44.09-.21,0-.11.05-.1a2.8,2.8,0,0,1,.27-.37,3.38,3.38,0,0,1,.33-.33,3.66,3.66,0,0,0-.35.31,2.83,2.83,0,0,0-.31.36l-.07.1-.06.1-.1.21-.19.43a4.23,4.23,0,0,1-.44.8Z"/><path class="cls-6" d="M65.84,38.37l2.07-2.19-2.22,2Z"/><path class="cls-6" d="M63.59,37.06V37a4.34,4.34,0,0,0,0-1c0-.16,0-.31,0-.47s0-.15,0-.23,0-.08,0-.12,0-.07,0-.11a2.76,2.76,0,0,1,.11-.45,3.42,3.42,0,0,1,.17-.43,3.5,3.5,0,0,0-.21.42,2.76,2.76,0,0,0-.15.45,1.08,1.08,0,0,0,0,.12s0,.08,0,.12,0,.16,0,.23,0,.31,0,.47a4.22,4.22,0,0,1-.1.91v0Z"/><path class="cls-6" d="M65.64,44.82l2.2,2.06-2-2.22Z"/><path class="cls-6" d="M57.92,41.5s0-.09,0-.14l-3,.09,3,.13S57.92,41.53,57.92,41.5Z"/><path class="cls-6" d="M66.28,46.75l-.07-.1-.07-.09L66,46.39,65.65,46a4.27,4.27,0,0,1-.57-.71l0,0-.17.11,0,0a4.37,4.37,0,0,0,.64.7l.34.31.16.16.08.08.07.09a2.83,2.83,0,0,1,.24.39,3.34,3.34,0,0,1,.18.43,3.19,3.19,0,0,0-.15-.44A2.9,2.9,0,0,0,66.28,46.75Z"/><path class="cls-6" d="M63.95,47.68l0-.11-.08-.22-.17-.44a4.14,4.14,0,0,1-.26-.88v0l-.2,0v.05a4.36,4.36,0,0,0,.33.89l.2.42.09.21,0,.11,0,.11a2.55,2.55,0,0,1,.07.46,3.71,3.71,0,0,1,0,.47,3.55,3.55,0,0,0,0-.47,2.81,2.81,0,0,0,0-.47S64,47.72,63.95,47.68Z"/><path class="cls-6" d="M68.9,42.56l-.12,0H68a4.19,4.19,0,0,1-.91-.1H67c0,.07,0,.13,0,.2H67a4.43,4.43,0,0,0,1,0l.47,0h.46a2.92,2.92,0,0,1,.45.11,3.52,3.52,0,0,1,.43.17,3.83,3.83,0,0,0-.42-.21A2.75,2.75,0,0,0,68.9,42.56Z"/><path class="cls-6" d="M68,44.92l-.1-.07-.1-.06-.21-.1-.43-.19a4.26,4.26,0,0,1-.8-.44l0,0-.12.17,0,0a4.28,4.28,0,0,0,.87.4l.44.16.21.09.11,0L68,45a2.56,2.56,0,0,1,.37.27,3.61,3.61,0,0,1,.33.32,3.49,3.49,0,0,0-.31-.35A2.84,2.84,0,0,0,68,44.92Z"/><path class="cls-6" d="M62.5,46.07h-.14l.09,3,.13-3Z"/><path class="cls-6" d="M66.68,43.37l2.83,1.07-2.74-1.27Z"/><path class="cls-6" d="M64.13,45.77l1.24,2.75-1-2.83Z"/><path class="cls-6" d="M58.21,43.12l-2.75,1.23,2.84-1Z"/><path class="cls-6" d="M56.18,43l.12,0,.11,0,.22-.08.44-.17a4.27,4.27,0,0,1,.88-.26H58c0-.07,0-.13,0-.2h-.05a4.46,4.46,0,0,0-.9.33l-.42.2-.21.09-.11,0-.11,0a2.66,2.66,0,0,1-.46.07,3.38,3.38,0,0,1-.47,0,3.58,3.58,0,0,0,.47,0A2.84,2.84,0,0,0,56.18,43Z"/><path class="cls-6" d="M57.32,45.19l.09-.08.18-.16.34-.32a4.3,4.3,0,0,1,.71-.57l0,0-.11-.17,0,0a4.42,4.42,0,0,0-.7.64l-.32.34-.16.16-.08.08-.09.07a2.73,2.73,0,0,1-.39.24,3.56,3.56,0,0,1-.43.18,3.91,3.91,0,0,0,.45-.15,2.9,2.9,0,0,0,.42-.21Z"/><path class="cls-6" d="M60.62,45.67l-1.07,2.81,1.27-2.73Z"/><path class="cls-6" d="M61.41,45.94V46a4.37,4.37,0,0,0,0,.95c0,.16,0,.31,0,.47s0,.15,0,.23,0,.08,0,.11,0,.08,0,.11a2.74,2.74,0,0,1-.11.45,3.4,3.4,0,0,1-.17.43,3.42,3.42,0,0,0,.21-.42,2.79,2.79,0,0,0,.15-.45,1.13,1.13,0,0,0,0-.12s0-.08,0-.12,0-.16,0-.23,0-.31,0-.47a4.17,4.17,0,0,1,.1-.91v0Z"/><path class="cls-6" d="M60,45.3l-.17-.12,0,0a4.39,4.39,0,0,0-.4.86l-.16.44-.09.21,0,.11-.05.1a2.72,2.72,0,0,1-.27.37,3.88,3.88,0,0,1-.33.33,3.92,3.92,0,0,0,.35-.31,2.84,2.84,0,0,0,.31-.36l.07-.1.06-.1.1-.21.19-.43a4.27,4.27,0,0,1,.44-.8Z"/><path class="cls-6" d="M59.16,44.63l-2.07,2.19,2.22-2Z"/><path class="cls-6" d="M59.67,40.41a2.1,2.1,0,0,1,.58-.51,2,2,0,0,1,.74-.27,1.48,1.48,0,0,1,.41,0,1.33,1.33,0,0,1,.39.12,1.59,1.59,0,0,1,.6.52h0a1.34,1.34,0,0,1,.08.46,2.1,2.1,0,0,1-.05.46,3.16,3.16,0,0,1-.13.44,4.25,4.25,0,0,1-.18.42L62,42a2.22,2.22,0,0,0,.2-.39,2.32,2.32,0,0,0,.13-.42,1.7,1.7,0,0,0,0-.43,1.06,1.06,0,0,0-.1-.4h0v0a1.72,1.72,0,0,0-.55-.44,1.25,1.25,0,0,0-.68-.1,2.24,2.24,0,0,0-.68.21,5.92,5.92,0,0,0-.65.36Z"/><path class="cls-6" d="M59.88,40.74a1.84,1.84,0,0,1,.41-.38,1.35,1.35,0,0,1,.25-.13.88.88,0,0,1,.29-.06h0a1.29,1.29,0,0,1,.42.09,2.21,2.21,0,0,1,.37.2h0l.19.15.09.07.09.07v0l-.11-.05-.11-.06-.21-.12h0l-.18-.09-.19-.08a1.52,1.52,0,0,0-.39-.09h0a1.11,1.11,0,0,0-.51.15l-.23.15Z"/><path class="cls-6" d="M60.09,41a4.75,4.75,0,0,0,.49.18l.25.06a.8.8,0,0,0,.25,0,.9.9,0,0,0,.24-.06l.24-.1a4.87,4.87,0,0,0,.45-.26,4.69,4.69,0,0,1-.43.3l-.23.13a.81.81,0,0,1-.26.08.91.91,0,0,1-.27,0l-.25-.09a5.06,5.06,0,0,1-.48-.22Z"/><path class="cls-6" d="M60.16,40.81h0a1.92,1.92,0,0,1,.38-.26l.22-.09a.56.56,0,0,1,.24,0l.12,0,.1,0,.2.11a.84.84,0,0,0,.21.09l.11,0h.07l0,0a.08.08,0,0,1,0,0,.08.08,0,0,1,0,0l0,0h0l0,0-.05,0-.11,0-.21.08-.22.08a.79.79,0,0,1-.24,0,.81.81,0,0,1-.23,0l-.22-.08a3.61,3.61,0,0,1-.41-.2h0Zm0,.06.42.13.22.06a.89.89,0,0,0,.21,0,.94.94,0,0,0,.42-.09l.2-.1.09-.06,0,0h0a.06.06,0,0,0,0,0,.07.07,0,0,0,0,0h0l0,0,0,0-.09-.08a.69.69,0,0,0-.19-.12l-.21-.08-.11,0-.1,0a1.07,1.07,0,0,0-.42.09,2,2,0,0,0-.39.22Z"/><circle class="cls-6" cx="61.01" cy="40.81" r="0.3"/><path class="cls-6" d="M65.41,40.42a6,6,0,0,0-.65-.36,2.25,2.25,0,0,0-.68-.21,1.25,1.25,0,0,0-.68.1,1.72,1.72,0,0,0-.55.44v0h0a1,1,0,0,0-.1.4,1.66,1.66,0,0,0,0,.43,2.46,2.46,0,0,0,.32.8l-.14.08a4.28,4.28,0,0,1-.18-.42,3.44,3.44,0,0,1-.13-.44,2,2,0,0,1-.05-.46,1.37,1.37,0,0,1,.08-.46h0a1.59,1.59,0,0,1,.6-.52,1.33,1.33,0,0,1,.39-.12,1.48,1.48,0,0,1,.41,0,2,2,0,0,1,.74.27,2.08,2.08,0,0,1,.58.51Z"/><path class="cls-6" d="M65.2,40.75,65,40.57l-.23-.15-.25-.11a.79.79,0,0,0-.26,0h0a1.55,1.55,0,0,0-.39.09l-.19.08-.18.09h0l-.21.12-.11.06-.11.05v0l.09-.07.09-.07.19-.15h0a2.19,2.19,0,0,1,.37-.2,1.31,1.31,0,0,1,.42-.09h0a.93.93,0,0,1,.29.06,1.29,1.29,0,0,1,.25.13l.22.17a1.89,1.89,0,0,1,.19.2Z"/><path class="cls-6" d="M65,41a3.36,3.36,0,0,1-.47.23l-.25.08a.84.84,0,0,1-.27,0,.92.92,0,0,1-.26-.08l-.24-.12a2.83,2.83,0,0,1-.42-.31l.46.25.23.11a.66.66,0,0,0,.48,0l.25-.07L65,41Z"/><path class="cls-6" d="M64.92,40.83h0a2.05,2.05,0,0,0-.39-.22l-.21-.07-.21,0-.1,0-.1,0-.21.08a.71.71,0,0,0-.19.12l-.09.08-.07,0h0l0,0a.06.06,0,0,0,0,0v0h0l0,0,.09.06.2.1a.94.94,0,0,0,.42.09l.21,0,.21-.06.43-.14h0Zm0,0,0,.05h0a3.38,3.38,0,0,1-.41.2l-.22.08a.81.81,0,0,1-.24,0,.8.8,0,0,1-.24,0l-.22-.08L63.44,41l-.11,0-.06,0,0,0,0,0a.09.09,0,0,1,0,0,.08.08,0,0,1,0-.06l0,0h.1l.11,0a1,1,0,0,0,.21-.09l.2-.11.1,0,.12,0a.55.55,0,0,1,.24,0l.22.09a2,2,0,0,1,.38.25Z"/><circle class="cls-6" cx="64.08" cy="40.81" r="0.3"/><path class="cls-6" d="M63.44,42.24a.94.94,0,0,0-.06-.18h0a1.11,1.11,0,0,1,0,.18.47.47,0,0,1,0,.17l0,.06,0,0h-.07l-.07,0-.08-.05L63,42.35h-.07l-.06,0a.62.62,0,0,0,0,.09.17.17,0,0,1-.12.08h-.34a.17.17,0,0,1-.12-.08.77.77,0,0,0,0-.09l-.06,0h-.07l-.09.06-.07.06-.07,0h-.07l0,0,0-.06a.44.44,0,0,1,0-.17,1,1,0,0,1,0-.18h0a.83.83,0,0,0-.07.37.25.25,0,0,0,0,.11l0,0,0,0h.11l0,0,.08-.06.07-.06a.13.13,0,0,1,.07,0h0l0,.08a.26.26,0,0,0,.08.08l.1,0,.19,0h0l.19,0,.1,0a.24.24,0,0,0,.08-.08l0-.08h0s0,0,.07,0l.07.06.08.06.05,0h.07l.06,0,0,0a.25.25,0,0,0,0-.11A.61.61,0,0,0,63.44,42.24Z"/><path class="cls-6" d="M63.45,43.22l-.13-.11a.46.46,0,0,0-.16-.07.71.71,0,0,0-.34,0l-.15.05-.13,0a1.25,1.25,0,0,1-.28-.09.7.7,0,0,0-.34,0,.45.45,0,0,0-.16.07l-.12.11a1.06,1.06,0,0,0-.18.26l.11-.12.12-.1a.54.54,0,0,1,.26-.13h.14l.14,0,.15.06a.41.41,0,0,0,.35,0l.15-.06a.67.67,0,0,1,.29,0,.55.55,0,0,1,.26.13l.12.1.11.12A1.05,1.05,0,0,0,63.45,43.22Z"/><path class="cls-6" d="M63,43.48l-.25,0-.24,0-.24,0-.26,0-.51,0,.5.07.25,0,.25,0h0l.25,0,.25,0,.51-.07Z"/><path class="cls-6" d="M63.32,43.57a.68.68,0,0,0-.26.17L63,43.8h0l0,0-.13,0-.29,0-.25,0-.12,0a.17.17,0,0,1-.08,0h0L62,43.67a.66.66,0,0,0-.15-.09l-.17,0h-.17l.17,0,.15.06.13.1a.7.7,0,0,1,.1.12h0a.17.17,0,0,0,.06.06l.07,0,.13,0h.27a1.37,1.37,0,0,0,.31,0A.52.52,0,0,0,63,43.9l0,0,0,0v0l0-.06a.66.66,0,0,1,.51-.25A.6.6,0,0,0,63.32,43.57Z"/><path class="cls-6" d="M63.14,44.38a.62.62,0,0,0-.36-.31.79.79,0,0,0-.24,0h0a.75.75,0,0,0-.24,0,.61.61,0,0,0-.21.12.66.66,0,0,0-.14.19.73.73,0,0,0-.08.22h0a.66.66,0,0,1,.08-.2.56.56,0,0,1,.33-.25.75.75,0,0,1,.21,0h0a.61.61,0,0,1,.4.12.58.58,0,0,1,.14.16.65.65,0,0,1,.08.2h0A.73.73,0,0,0,63.14,44.38Z"/></g></g></g></svg>