<svg id="Capa_1" data-name="Capa 1" xmlns="http://www.w3.org/2000/svg" viewBox="0 0 90 70"><defs><style>.cls-1{fill:#56abe1;}</style></defs><path class="cls-1" d="M85.91,70.07H4.09A3.9,3.9,0,0,1,.2,66.18V3.82A3.9,3.9,0,0,1,4.09-.07H85.91A3.89,3.89,0,0,1,89.8,3.82V66.18A3.89,3.89,0,0,1,85.91,70.07ZM4.09.93A2.9,2.9,0,0,0,1.2,3.82V66.18a2.9,2.9,0,0,0,2.89,2.89H85.91a2.9,2.9,0,0,0,2.89-2.89V3.82A2.9,2.9,0,0,0,85.91.93Z"/><path class="cls-1" d="M16,42.46v1.21H9.67V42.46h2.48V34.78c0-.24,0-.49,0-.75l-2,1.68a.57.57,0,0,1-.23.12.74.74,0,0,1-.21,0,.48.48,0,0,1-.18-.07.75.75,0,0,1-.13-.11l-.5-.7,3.51-3h1.3V42.46Z"/><path class="cls-1" d="M20.14,31.83a3,3,0,0,1,1.05.17,2.29,2.29,0,0,1,.8.51,2.2,2.2,0,0,1,.51.8,2.69,2.69,0,0,1,.19,1,2.8,2.8,0,0,1-.19,1.07,2.19,2.19,0,0,1-1.31,1.31,3.15,3.15,0,0,1-2.1,0,2.29,2.29,0,0,1-.8-.51,2.17,2.17,0,0,1-.52-.8,3,3,0,0,1-.19-1.07,2.89,2.89,0,0,1,.19-1,2.1,2.1,0,0,1,.52-.8,2.29,2.29,0,0,1,.8-.51A3,3,0,0,1,20.14,31.83Zm0,4.14c.87,0,1.3-.54,1.3-1.6s-.43-1.6-1.3-1.6a1.2,1.2,0,0,0-1,.4,1.93,1.93,0,0,0-.32,1.2,1.9,1.9,0,0,0,.32,1.19A1.18,1.18,0,0,0,20.14,36Z"/><path class="cls-1" d="M36.63,41.16a.34.34,0,0,1,.25.11l.68.75a4.82,4.82,0,0,1-1.74,1.32,6.05,6.05,0,0,1-2.49.46,5.89,5.89,0,0,1-2.3-.44,5,5,0,0,1-1.76-1.23,5.6,5.6,0,0,1-1.13-1.89,6.94,6.94,0,0,1-.4-2.42,6.72,6.72,0,0,1,.42-2.42,5.33,5.33,0,0,1,3-3.13,6.1,6.1,0,0,1,2.34-.44,5.74,5.74,0,0,1,2.22.41,5.35,5.35,0,0,1,1.68,1.09l-.57.8a.5.5,0,0,1-.14.15.38.38,0,0,1-.22.06.61.61,0,0,1-.37-.16,5.24,5.24,0,0,0-.54-.34,4.17,4.17,0,0,0-.84-.35,4.29,4.29,0,0,0-1.24-.16,4.19,4.19,0,0,0-1.6.31,3.55,3.55,0,0,0-1.25.88,3.9,3.9,0,0,0-.81,1.41,5.86,5.86,0,0,0-.29,1.89,5.61,5.61,0,0,0,.3,1.9,4.28,4.28,0,0,0,.83,1.41A3.64,3.64,0,0,0,31.9,42a4,4,0,0,0,1.55.3,6.32,6.32,0,0,0,.91-.06,3.34,3.34,0,0,0,.74-.19,3.15,3.15,0,0,0,.64-.31,4.1,4.1,0,0,0,.59-.46.55.55,0,0,1,.14-.09A.29.29,0,0,1,36.63,41.16Z"/><path class="cls-1" d="M43.62,42.28A3.15,3.15,0,0,0,44.88,42a2.62,2.62,0,0,0,.93-.66,2.88,2.88,0,0,0,.59-1,3.91,3.91,0,0,0,.2-1.31V32h1.73v7.09A5.34,5.34,0,0,1,48,41a4.43,4.43,0,0,1-.94,1.51,4.37,4.37,0,0,1-1.48,1,5.16,5.16,0,0,1-2,.36,5.07,5.07,0,0,1-2-.36A4.15,4.15,0,0,1,39.24,41a5.34,5.34,0,0,1-.33-1.9V32h1.74V39a3.87,3.87,0,0,0,.2,1.31,2.82,2.82,0,0,0,.58,1,2.66,2.66,0,0,0,.94.66A3.1,3.1,0,0,0,43.62,42.28Z"/><path class="cls-1" d="M61.73,37.82a6.7,6.7,0,0,1-.42,2.41,5.58,5.58,0,0,1-1.19,1.89,5.27,5.27,0,0,1-1.83,1.23,6.6,6.6,0,0,1-4.74,0,5.22,5.22,0,0,1-1.84-1.23,5.55,5.55,0,0,1-1.18-1.89,7,7,0,0,1,0-4.82,5.55,5.55,0,0,1,1.18-1.89,5.25,5.25,0,0,1,1.84-1.24,6.47,6.47,0,0,1,4.74,0,5.3,5.3,0,0,1,1.83,1.24,5.58,5.58,0,0,1,1.19,1.89A6.74,6.74,0,0,1,61.73,37.82Zm-1.78,0a5.8,5.8,0,0,0-.28-1.88,3.94,3.94,0,0,0-.82-1.41,3.6,3.6,0,0,0-1.27-.89,4.38,4.38,0,0,0-1.66-.31,4.44,4.44,0,0,0-1.67.31,3.73,3.73,0,0,0-1.28.89,4.07,4.07,0,0,0-.81,1.41,6.24,6.24,0,0,0,0,3.76A3.94,3.94,0,0,0,53,41.1a3.6,3.6,0,0,0,1.28.89,4.44,4.44,0,0,0,1.67.3,4.38,4.38,0,0,0,1.66-.3,3.48,3.48,0,0,0,1.27-.89,3.81,3.81,0,0,0,.82-1.4A5.76,5.76,0,0,0,60,37.82Z"/><path class="cls-1" d="M71.13,33.42H67.41V43.67H65.68V33.42H62V32h9.18Z"/><path class="cls-1" d="M81.07,43.67H79.73a.66.66,0,0,1-.38-.11.63.63,0,0,1-.21-.3l-1-2.71H73l-1,2.71a.72.72,0,0,1-.21.29.62.62,0,0,1-.38.12H70L74.65,32H76.4Zm-3.44-4.36L75.9,34.77a9.75,9.75,0,0,1-.38-1.18q-.09.36-.18.66c-.07.2-.13.38-.19.53l-1.72,4.53Z"/><path class="cls-1" d="M13.06,59a4.35,4.35,0,0,1-1.45-.26,3.9,3.9,0,0,1-1.32-.8,4.07,4.07,0,0,1-1-1.34A4.68,4.68,0,0,1,9,54.68a4.94,4.94,0,0,1,.38-1.92,4.73,4.73,0,0,1,1.06-1.58,5.16,5.16,0,0,1,1.66-1.07,5.68,5.68,0,0,1,2.15-.39,5.9,5.9,0,0,1,2.16.37,4.54,4.54,0,0,1,1.61,1,4.67,4.67,0,0,1,1,1.58,5.73,5.73,0,0,1,.35,2,7.54,7.54,0,0,1-.12,1.38,7,7,0,0,1-.33,1.23,7.18,7.18,0,0,1-.5,1.13,11,11,0,0,1-.67,1.06L14.52,64.1a1.55,1.55,0,0,1-.65.5,2.25,2.25,0,0,1-1,.21H10l4.73-5.66c.09-.11.19-.22.27-.33l.25-.32a4.58,4.58,0,0,1-1,.37A5.24,5.24,0,0,1,13.06,59Zm3.26-4.55a2.84,2.84,0,0,0-.16-1,2,2,0,0,0-.44-.69,2,2,0,0,0-.68-.42,2.74,2.74,0,0,0-.87-.14,2,2,0,0,0-.86.17,1.71,1.71,0,0,0-.63.46,1.94,1.94,0,0,0-.4.7,2.8,2.8,0,0,0-.14.88c0,1.49.69,2.23,2.07,2.23a2,2,0,0,0,1.56-.61A2.34,2.34,0,0,0,16.32,54.44Z"/><path class="cls-1" d="M30.84,57.34a12.17,12.17,0,0,1-.42,3.39,6.87,6.87,0,0,1-1.16,2.38,4.64,4.64,0,0,1-1.76,1.4,5.51,5.51,0,0,1-4.41,0,4.66,4.66,0,0,1-1.74-1.4,6.86,6.86,0,0,1-1.15-2.38,13.89,13.89,0,0,1,0-6.78,6.86,6.86,0,0,1,1.15-2.38,4.66,4.66,0,0,1,1.74-1.4,5.63,5.63,0,0,1,4.41,0,4.64,4.64,0,0,1,1.76,1.4A6.87,6.87,0,0,1,30.42,54,12.07,12.07,0,0,1,30.84,57.34Zm-3.27,0a13.52,13.52,0,0,0-.2-2.54,5.08,5.08,0,0,0-.52-1.55,1.88,1.88,0,0,0-.73-.77,1.79,1.79,0,0,0-.83-.21,1.75,1.75,0,0,0-.82.21,1.87,1.87,0,0,0-.72.77,5.42,5.42,0,0,0-.5,1.55,17.07,17.07,0,0,0,0,5.08,5.53,5.53,0,0,0,.5,1.55,1.84,1.84,0,0,0,.72.78,1.75,1.75,0,0,0,.82.21,1.79,1.79,0,0,0,.83-.21,1.85,1.85,0,0,0,.73-.78,5.18,5.18,0,0,0,.52-1.55A13.44,13.44,0,0,0,27.57,57.34Z"/><path class="cls-1" d="M49.32,57.34a7.64,7.64,0,0,1-.56,3,6.87,6.87,0,0,1-1.57,2.37,7,7,0,0,1-2.44,1.56,8.68,8.68,0,0,1-3.17.56h-5.8V49.88h5.8a8.68,8.68,0,0,1,3.17.56A7.3,7.3,0,0,1,47.19,52a6.83,6.83,0,0,1,1.57,2.36A7.71,7.71,0,0,1,49.32,57.34Zm-3.54,0a6.57,6.57,0,0,0-.29-2,4.22,4.22,0,0,0-.82-1.51,3.61,3.61,0,0,0-1.32-.95,4.5,4.5,0,0,0-1.77-.34H39.26v9.6h2.32a4.5,4.5,0,0,0,1.77-.33,3.61,3.61,0,0,0,1.32-1,4.31,4.31,0,0,0,.82-1.51A6.64,6.64,0,0,0,45.78,57.34Z"/><path class="cls-1" d="M57.1,46.39l-3,2.19a1.46,1.46,0,0,1-.5.27,1.92,1.92,0,0,1-.58.07H50.48l1.85-2a1.54,1.54,0,0,1,.27-.25.92.92,0,0,1,.27-.16,1,1,0,0,1,.31-.08l.42,0ZM54.44,64.81H51V49.88h3.48Z"/><path class="cls-1" d="M70.77,64.81H68.09a1.22,1.22,0,0,1-.74-.21,1.09,1.09,0,0,1-.41-.54l-.88-2.6H60.39l-.89,2.6a1.13,1.13,0,0,1-.4.52,1.15,1.15,0,0,1-.72.23H55.67l5.78-14.93H65ZM61.18,59.1h4.08L63.89,55c-.09-.26-.2-.56-.31-.91s-.24-.74-.36-1.14c-.11.41-.22.8-.34,1.15s-.22.66-.32.92Z"/><path class="cls-1" d="M80,52.91a1.2,1.2,0,0,1-.32.37.76.76,0,0,1-.44.13,1.05,1.05,0,0,1-.5-.15l-.62-.34a5.72,5.72,0,0,0-.78-.33,3.15,3.15,0,0,0-1-.15,2.16,2.16,0,0,0-1.45.42A1.42,1.42,0,0,0,74.38,54a1,1,0,0,0,.28.75,2.53,2.53,0,0,0,.76.51,8.52,8.52,0,0,0,1.06.39c.4.12.81.26,1.23.4a11.75,11.75,0,0,1,1.22.52,4.08,4.08,0,0,1,1.07.76,3.55,3.55,0,0,1,.75,1.12A4,4,0,0,1,81,60,5.19,5.19,0,0,1,80.68,62a4.63,4.63,0,0,1-1,1.57A5,5,0,0,1,78,64.59a6.43,6.43,0,0,1-2.27.38,7.68,7.68,0,0,1-1.42-.14,8.34,8.34,0,0,1-1.4-.41,7.86,7.86,0,0,1-1.27-.62,5.23,5.23,0,0,1-1-.8l1-1.62a.82.82,0,0,1,.32-.29.85.85,0,0,1,.44-.11,1.17,1.17,0,0,1,.62.19l.71.43a5.39,5.39,0,0,0,.9.43,3.41,3.41,0,0,0,1.21.2,2.3,2.3,0,0,0,1.47-.42,1.62,1.62,0,0,0,.52-1.32,1.27,1.27,0,0,0-.29-.85,2.26,2.26,0,0,0-.75-.54,7.65,7.65,0,0,0-1.06-.38l-1.22-.36a9.14,9.14,0,0,1-1.22-.49,3.84,3.84,0,0,1-1.06-.77,3.56,3.56,0,0,1-.75-1.19,4.73,4.73,0,0,1-.29-1.76,4.12,4.12,0,0,1,.34-1.64,4.29,4.29,0,0,1,1-1.42,4.94,4.94,0,0,1,1.61-1,5.93,5.93,0,0,1,2.18-.37,7.35,7.35,0,0,1,1.34.11,6.92,6.92,0,0,1,1.23.31,6.06,6.06,0,0,1,1.09.51,4.71,4.71,0,0,1,.91.66Z"/><path class="cls-1" d="M79.1,26.39H9.47c-.28,0-.51-.15-.51-.33s.23-.32.51-.32H79.1c.28,0,.51.15.51.32S79.38,26.39,79.1,26.39Z"/><g id="Grupo_12890" data-name="Grupo 12890"><g id="Grupo_12888" data-name="Grupo 12888"><path id="Trazado_124287" data-name="Trazado 124287" class="cls-1" d="M56.58,5.86h2.78V20.57h-4.3V10.86L51.93,13V9Z"/><path id="Trazado_124288" data-name="Trazado 124288" class="cls-1" d="M71.69,17v3.53H61.33v-2.3l3.94-4.68a9.53,9.53,0,0,0,1.19-1.69,3,3,0,0,0,.35-1.28,1.26,1.26,0,0,0-.55-1.11,3.5,3.5,0,0,0-1.83-.36,10,10,0,0,0-1.73.15,9.18,9.18,0,0,0-1.56.41V6.27a10.87,10.87,0,0,1,1.78-.39,14.84,14.84,0,0,1,2-.16,7.86,7.86,0,0,1,4.6,1.09A3.85,3.85,0,0,1,71,10.19a5.74,5.74,0,0,1-.46,2.23A8.51,8.51,0,0,1,69,14.76L67,17Z"/></g><g id="Grupo_12889" data-name="Grupo 12889"><path id="Trazado_124289" data-name="Trazado 124289" class="cls-1" d="M12.46,12.09a2.51,2.51,0,0,1,1.35,1.15,4.52,4.52,0,0,1,.44,2.17v5.16H12.06l-.18-.86h-.12a2.49,2.49,0,0,1-1,.77,4,4,0,0,1-3-.07,2.35,2.35,0,0,1-1-.88,2.47,2.47,0,0,1-.35-1.32,2.24,2.24,0,0,1,.91-1.93,5.36,5.36,0,0,1,2.86-.81l1.48-.12v-.11a1.93,1.93,0,0,0-.21-.94,1.09,1.09,0,0,0-.64-.49,4.21,4.21,0,0,0-1.22-.15c-.4,0-.81,0-1.21.09A9,9,0,0,0,7.13,14v-1.9a8.71,8.71,0,0,1,1.44-.27,12.46,12.46,0,0,1,1.5-.1A7.18,7.18,0,0,1,12.46,12.09ZM11,18.83a1.92,1.92,0,0,0,.67-.41V16.79l-1.21.09a1.92,1.92,0,0,0-1.09.33A.92.92,0,0,0,9,18a.9.9,0,0,0,.31.74,1.29,1.29,0,0,0,.89.25A2.27,2.27,0,0,0,11,18.83Z"/><path id="Trazado_124290" data-name="Trazado 124290" class="cls-1" d="M16,7.73h2.65v5h.13A3.27,3.27,0,0,1,19.85,12a4,4,0,0,1,1.4-.26,2.92,2.92,0,0,1,2.16.83,3.57,3.57,0,0,1,.81,2.59v5.41H21.57V15.33a1.46,1.46,0,0,0-.33-1.08,1.27,1.27,0,0,0-.95-.32,2.38,2.38,0,0,0-.91.18,1.9,1.9,0,0,0-.75.53v5.93H16Z"/><path id="Trazado_124291" data-name="Trazado 124291" class="cls-1" d="M27.6,20.23a3.42,3.42,0,0,1-1.53-1.5,5.19,5.19,0,0,1-.53-2.48,4.51,4.51,0,0,1,1.15-3.37,4.44,4.44,0,0,1,7.7,3.35,5.23,5.23,0,0,1-.54,2.49,3.42,3.42,0,0,1-1.52,1.51,5.82,5.82,0,0,1-4.73,0Zm3.33-1.66a1.56,1.56,0,0,0,.59-.8,4.58,4.58,0,0,0,.2-1.52,4.73,4.73,0,0,0-.2-1.54,1.55,1.55,0,0,0-.59-.81,2.12,2.12,0,0,0-1.93,0,1.56,1.56,0,0,0-.59.8,4.67,4.67,0,0,0-.2,1.53,4.7,4.7,0,0,0,.2,1.53,1.53,1.53,0,0,0,.58.81,2.14,2.14,0,0,0,1.94,0Z"/><path id="Trazado_124292" data-name="Trazado 124292" class="cls-1" d="M35.78,11.88h2.16L38.15,13h.12a2.31,2.31,0,0,1,1-.93,3.12,3.12,0,0,1,1.41-.31,4.37,4.37,0,0,1,.72.06v2.3a4.4,4.4,0,0,0-.89-.07,3.13,3.13,0,0,0-1.18.22,2.07,2.07,0,0,0-.9.61v5.69H35.78Z"/><path id="Trazado_124293" data-name="Trazado 124293" class="cls-1" d="M47.94,12.09a2.58,2.58,0,0,1,1.35,1.15,4.65,4.65,0,0,1,.44,2.17v5.16H47.54l-.18-.86h-.13a2.37,2.37,0,0,1-1,.77,4,4,0,0,1-3-.07,2.35,2.35,0,0,1-1-.88,2.47,2.47,0,0,1-.35-1.32,2.26,2.26,0,0,1,.9-1.93,5.26,5.26,0,0,1,2.86-.8l1.48-.12v-.11a1.83,1.83,0,0,0-.2-.95,1.19,1.19,0,0,0-.65-.49,3.79,3.79,0,0,0-1.21-.14,9.87,9.87,0,0,0-1.22.08,8.55,8.55,0,0,0-1.24.27V12.11A11.62,11.62,0,0,1,44,11.84a12.58,12.58,0,0,1,1.5-.09A7,7,0,0,1,47.94,12.09Zm-1.48,6.74a1.92,1.92,0,0,0,.67-.41V16.79l-1.21.09a1.91,1.91,0,0,0-1.08.33.9.9,0,0,0-.34.76.87.87,0,0,0,.31.74,1.29,1.29,0,0,0,.89.25,2.17,2.17,0,0,0,.76-.13Z"/></g><path id="Trazado_124294" data-name="Trazado 124294" class="cls-1" d="M83.21,14.11l-6.47,6.27a1.16,1.16,0,0,1-1.94-.93V6.92a1.17,1.17,0,0,1,1.08-1.24,1.15,1.15,0,0,1,.86.31l6.47,6.26A1.32,1.32,0,0,1,83.21,14.11Z"/></g></svg>